<svg xmlns="http://www.w3.org/2000/svg" xmlns:xlink="http://www.w3.org/1999/xlink" width="500" zoomAndPan="magnify" viewBox="0 0 375 374.999991" height="500" preserveAspectRatio="xMidYMid meet" version="1.0"><defs><g/><clipPath id="c073e847b4"><path d="M 134.445312 173.175781 L 240.195312 173.175781 L 240.195312 240.675781 L 134.445312 240.675781 Z M 134.445312 173.175781 " clip-rule="nonzero"/></clipPath><clipPath id="c7d44671f0"><path d="M 65.121094 180.917969 L 129.621094 180.917969 L 129.621094 241.667969 L 65.121094 241.667969 Z M 65.121094 180.917969 " clip-rule="nonzero"/></clipPath><clipPath id="9e72c41a68"><path d="M 3.480469 5.535156 L 59.679688 5.535156 L 59.679688 61.652344 L 3.480469 61.652344 Z M 3.480469 5.535156 " clip-rule="nonzero"/></clipPath><clipPath id="89b43d13f5"><path d="M 48 38 L 64.621094 38 L 64.621094 55 L 48 55 Z M 48 38 " clip-rule="nonzero"/></clipPath><clipPath id="a24927cc33"><path d="M 0.367188 0.925781 L 24.808594 0.925781 L 24.808594 25.566406 L 0.367188 25.566406 Z M 0.367188 0.925781 " clip-rule="nonzero"/></clipPath><clipPath id="a3d6247e33"><rect x="0" width="65" y="0" height="62"/></clipPath><clipPath id="28165b428c"><path d="M 255.695312 185.535156 L 311.898438 185.535156 L 311.898438 241.652344 L 255.695312 241.652344 Z M 255.695312 185.535156 " clip-rule="nonzero"/></clipPath><clipPath id="b318d8745d"><path d="M 250.507812 218 L 267 218 L 267 235 L 250.507812 235 Z M 250.507812 218 " clip-rule="nonzero"/></clipPath><clipPath id="5301e40880"><path d="M 290.570312 180.925781 L 315.007812 180.925781 L 315.007812 205.566406 L 290.570312 205.566406 Z M 290.570312 180.925781 " clip-rule="nonzero"/></clipPath></defs><g clip-path="url(#c073e847b4)"><path fill="#e4e2dd" d="M 239.480469 181.738281 L 235.339844 181.738281 L 235.339844 178.003906 C 235.339844 177.714844 235.101562 177.476562 234.8125 177.476562 L 229.609375 177.476562 L 229.609375 173.707031 C 229.609375 173.417969 229.371094 173.179688 229.082031 173.179688 L 206.964844 173.179688 C 195.015625 173.179688 188.890625 178.238281 186.648438 180.65625 C 184.402344 178.238281 178.28125 173.179688 166.332031 173.179688 L 144.214844 173.179688 C 143.921875 173.179688 143.6875 173.417969 143.6875 173.707031 L 143.6875 177.476562 L 139.644531 177.476562 C 139.355469 177.476562 139.117188 177.714844 139.117188 178.003906 L 139.117188 181.738281 L 134.972656 181.738281 C 134.683594 181.738281 134.445312 181.972656 134.445312 182.265625 L 134.445312 239.167969 C 134.445312 239.457031 134.679688 239.695312 134.96875 239.695312 L 185.945312 240.332031 C 185.984375 240.339844 186.023438 240.347656 186.066406 240.347656 C 186.105469 240.347656 186.140625 240.34375 186.179688 240.335938 L 187.222656 240.347656 C 187.222656 240.347656 187.226562 240.347656 187.226562 240.347656 C 187.230469 240.347656 187.230469 240.347656 187.234375 240.347656 L 239.484375 239.699219 C 239.773438 239.695312 240.007812 239.460938 240.007812 239.167969 L 240.007812 182.265625 C 240.007812 181.976562 239.773438 181.738281 239.480469 181.738281 Z M 135.503906 182.796875 L 139.117188 182.796875 L 139.117188 235.628906 C 139.117188 235.917969 139.355469 236.15625 139.644531 236.15625 L 163.4375 236.15625 C 170.707031 236.15625 178.789062 238.007812 183.367188 239.242188 L 135.503906 238.644531 Z M 185.941406 181.476562 C 185.753906 181.710938 185.652344 181.867188 185.625 181.90625 C 185.566406 181.992188 185.535156 182.09375 185.535156 182.199219 L 185.535156 237.59375 C 182.402344 235.046875 175.988281 230.800781 168.003906 230.800781 L 144.742188 230.800781 L 144.742188 174.238281 L 166.332031 174.238281 C 177.925781 174.238281 183.886719 179.273438 185.941406 181.476562 Z M 228.550781 174.238281 L 228.550781 230.804688 L 205.285156 230.804688 C 196.132812 230.804688 189.039062 236.382812 186.59375 238.585938 L 186.59375 182.367188 C 187.363281 181.34375 193.191406 174.238281 206.960938 174.238281 Z M 234.28125 235.097656 L 211.015625 235.097656 C 201.464844 235.097656 190.574219 238.234375 187.753906 239.097656 L 187.753906 238.984375 C 190.457031 236.679688 197.089844 231.855469 205.285156 231.855469 L 229.078125 231.855469 C 229.371094 231.855469 229.605469 231.621094 229.605469 231.328125 L 229.605469 178.535156 L 234.277344 178.535156 L 234.277344 235.097656 Z M 143.6875 231.332031 C 143.6875 231.621094 143.921875 231.859375 144.214844 231.859375 L 168.003906 231.859375 C 175.789062 231.859375 182.171875 236.21875 185.109375 238.628906 C 180.921875 237.433594 171.683594 235.097656 163.4375 235.097656 L 140.175781 235.097656 L 140.175781 178.535156 L 143.683594 178.535156 L 143.683594 231.332031 Z M 238.949219 238.644531 L 191.089844 239.242188 C 195.664062 238.007812 203.742188 236.15625 211.015625 236.15625 L 234.808594 236.15625 C 235.101562 236.15625 235.335938 235.917969 235.335938 235.628906 L 235.335938 182.796875 L 238.949219 182.796875 Z M 238.949219 238.644531 " fill-opacity="1" fill-rule="nonzero"/></g><g fill="#e4e2dd" fill-opacity="1"><g transform="translate(31.19934, 208.937459)"><g><path d="M 12.1875 -10.828125 C 11.738281 -10.429688 11.3125 -10.046875 10.90625 -9.671875 C 10.507812 -9.296875 10 -8.804688 9.375 -8.203125 C 8.757812 -7.597656 7.863281 -6.773438 6.6875 -5.734375 C 6.488281 -5.554688 6.347656 -5.519531 6.265625 -5.625 C 6.179688 -5.738281 6.226562 -5.875 6.40625 -6.03125 C 7.476562 -6.988281 8.300781 -7.820312 8.875 -8.53125 C 9.445312 -9.25 9.757812 -9.953125 9.8125 -10.640625 C 9.863281 -11.328125 9.613281 -12.117188 9.0625 -13.015625 C 8.519531 -13.910156 7.660156 -15.019531 6.484375 -16.34375 L -11.15625 -36.1875 L -13.0625 -34.484375 C -14.425781 -33.265625 -15.378906 -31.867188 -15.921875 -30.296875 C -16.472656 -28.722656 -16.546875 -26.832031 -16.140625 -24.625 C -15.734375 -22.414062 -14.820312 -19.738281 -13.40625 -16.59375 C -13.382812 -16.519531 -13.410156 -16.445312 -13.484375 -16.375 C -13.566406 -16.3125 -13.632812 -16.34375 -13.6875 -16.46875 L -21.640625 -30.125 C -21.691406 -30.25 -21.628906 -30.304688 -21.453125 -30.296875 C -20.492188 -30.046875 -19.535156 -30.195312 -18.578125 -30.75 C -17.628906 -31.300781 -16.394531 -32.25 -14.875 -33.59375 L -4.9375 -42.4375 C -3.488281 -43.71875 -2.410156 -44.820312 -1.703125 -45.75 C -0.992188 -46.675781 -0.726562 -47.613281 -0.90625 -48.5625 C -0.894531 -48.800781 -0.816406 -48.875 -0.671875 -48.78125 L 11.96875 -39.28125 C 12.082031 -39.195312 12.109375 -39.128906 12.046875 -39.078125 C 11.984375 -39.023438 11.90625 -39.003906 11.8125 -39.015625 C 8.875 -40.816406 6.328125 -42.039062 4.171875 -42.6875 C 2.015625 -43.332031 0.125 -43.476562 -1.5 -43.125 C -3.132812 -42.769531 -4.648438 -41.972656 -6.046875 -40.734375 L -7.90625 -39.0625 L 9.734375 -19.21875 C 10.910156 -17.894531 11.90625 -16.910156 12.71875 -16.265625 C 13.539062 -15.617188 14.300781 -15.28125 15 -15.25 C 15.695312 -15.21875 16.429688 -15.441406 17.203125 -15.921875 C 17.972656 -16.410156 18.894531 -17.132812 19.96875 -18.09375 C 20.144531 -18.25 20.285156 -18.28125 20.390625 -18.1875 C 20.492188 -18.101562 20.445312 -17.972656 20.25 -17.796875 C 19.070312 -16.753906 18.144531 -15.957031 17.46875 -15.40625 C 16.800781 -14.851562 16.265625 -14.40625 15.859375 -14.0625 C 15.453125 -13.726562 15.007812 -13.347656 14.53125 -12.921875 Z M 12.1875 -10.828125 "/></g></g></g><g fill="#e4e2dd" fill-opacity="1"><g transform="translate(56.669169, 186.291768)"><g><path d="M 4.421875 -2.921875 C 4.140625 -2.734375 3.878906 -2.550781 3.640625 -2.375 C 3.410156 -2.195312 3.109375 -1.960938 2.734375 -1.671875 C 2.367188 -1.390625 1.820312 -1.007812 1.09375 -0.53125 C 0.976562 -0.457031 0.882812 -0.46875 0.8125 -0.5625 C 0.75 -0.664062 0.773438 -0.753906 0.890625 -0.828125 C 1.921875 -1.546875 2.566406 -2.191406 2.828125 -2.765625 C 3.097656 -3.347656 3.078125 -3.992188 2.765625 -4.703125 C 2.453125 -5.410156 1.9375 -6.3125 1.21875 -7.40625 L -12.5 -28.109375 C -13.226562 -29.222656 -14.019531 -29.96875 -14.875 -30.34375 C -15.726562 -30.726562 -16.78125 -30.441406 -18.03125 -29.484375 C -18.113281 -29.429688 -18.179688 -29.445312 -18.234375 -29.53125 C -18.285156 -29.613281 -18.269531 -29.679688 -18.1875 -29.734375 C -17.738281 -30.285156 -17.210938 -30.945312 -16.609375 -31.71875 C -16.003906 -32.488281 -15.421875 -33.28125 -14.859375 -34.09375 C -14.304688 -34.90625 -13.863281 -35.601562 -13.53125 -36.1875 C -13.425781 -36.40625 -13.3125 -36.421875 -13.1875 -36.234375 L -6.1875 -25.625 L -3.0625 -20.6875 L -2.96875 -20.75 C -2.914062 -22.289062 -2.65625 -23.828125 -2.1875 -25.359375 C -1.71875 -26.898438 -1.082031 -28.300781 -0.28125 -29.5625 C 0.507812 -30.820312 1.425781 -31.789062 2.46875 -32.46875 C 4.800781 -34.019531 6.953125 -34.363281 8.921875 -33.5 C 10.890625 -32.644531 12.925781 -30.613281 15.03125 -27.40625 L 20.046875 -19.828125 C 20.765625 -18.734375 21.382812 -17.898438 21.90625 -17.328125 C 22.425781 -16.753906 23.003906 -16.476562 23.640625 -16.5 C 24.285156 -16.53125 25.144531 -16.878906 26.21875 -17.546875 C 26.351562 -17.640625 26.453125 -17.632812 26.515625 -17.53125 C 26.585938 -17.4375 26.554688 -17.34375 26.421875 -17.25 C 25.703125 -16.769531 25.128906 -16.410156 24.703125 -16.171875 C 24.273438 -15.929688 23.9375 -15.738281 23.6875 -15.59375 C 23.445312 -15.457031 23.175781 -15.289062 22.875 -15.09375 L 19.984375 -13.1875 C 19.710938 -13.007812 19.460938 -12.832031 19.234375 -12.65625 C 19.003906 -12.488281 18.710938 -12.265625 18.359375 -11.984375 C 18.003906 -11.710938 17.476562 -11.347656 16.78125 -10.890625 C 16.664062 -10.816406 16.570312 -10.828125 16.5 -10.921875 C 16.4375 -11.023438 16.460938 -11.113281 16.578125 -11.1875 C 17.554688 -11.863281 18.171875 -12.484375 18.421875 -13.046875 C 18.671875 -13.617188 18.632812 -14.253906 18.3125 -14.953125 C 17.988281 -15.660156 17.46875 -16.5625 16.75 -17.65625 L 11.4375 -25.71875 C 10.144531 -27.65625 8.953125 -28.960938 7.859375 -29.640625 C 6.773438 -30.316406 5.765625 -30.582031 4.828125 -30.4375 C 3.890625 -30.289062 2.972656 -29.925781 2.078125 -29.34375 C 0.691406 -28.425781 -0.363281 -27.238281 -1.09375 -25.78125 C -1.832031 -24.320312 -2.347656 -22.476562 -2.640625 -20.25 L 4.4375 -9.53125 C 5.15625 -8.4375 5.773438 -7.601562 6.296875 -7.03125 C 6.816406 -6.457031 7.378906 -6.171875 7.984375 -6.171875 C 8.597656 -6.171875 9.421875 -6.492188 10.453125 -7.140625 C 10.585938 -7.234375 10.6875 -7.226562 10.75 -7.125 C 10.820312 -7.03125 10.789062 -6.9375 10.65625 -6.84375 C 9.625 -6.164062 8.910156 -5.726562 8.515625 -5.53125 C 8.117188 -5.332031 7.710938 -5.09375 7.296875 -4.8125 Z M 4.421875 -2.921875 "/></g></g></g><g fill="#e4e2dd" fill-opacity="1"><g transform="translate(82.518438, 169.271612)"><g><path d="M 19.640625 -22.390625 C 19.710938 -22.566406 19.816406 -22.660156 19.953125 -22.671875 C 20.097656 -22.679688 20.175781 -22.601562 20.1875 -22.4375 C 20.289062 -20.320312 20.15625 -18.171875 19.78125 -15.984375 C 19.40625 -13.796875 18.660156 -11.789062 17.546875 -9.96875 C 16.441406 -8.144531 14.8125 -6.703125 12.65625 -5.640625 C 10.445312 -4.554688 8.25 -4.097656 6.0625 -4.265625 C 3.882812 -4.441406 1.90625 -5.171875 0.125 -6.453125 C -1.65625 -7.742188 -3.078125 -9.484375 -4.140625 -11.671875 C -4.960938 -13.335938 -5.394531 -15.066406 -5.4375 -16.859375 C -5.488281 -18.660156 -5.195312 -20.40625 -4.5625 -22.09375 C -3.9375 -23.78125 -3.019531 -25.296875 -1.8125 -26.640625 C -0.613281 -27.992188 0.804688 -29.070312 2.453125 -29.875 C 4.191406 -30.726562 5.90625 -31.132812 7.59375 -31.09375 C 9.28125 -31.050781 10.800781 -30.644531 12.15625 -29.875 C 13.519531 -29.113281 14.535156 -28.0625 15.203125 -26.71875 C 15.421875 -26.269531 15.59375 -25.757812 15.71875 -25.1875 L -2.109375 -16.453125 C -2.085938 -16.316406 -2.046875 -16.1875 -1.984375 -16.0625 C -1.921875 -15.9375 -1.851562 -15.800781 -1.78125 -15.65625 C -0.8125 -13.6875 0.445312 -12.015625 2 -10.640625 C 3.550781 -9.265625 5.289062 -8.398438 7.21875 -8.046875 C 9.15625 -7.691406 11.203125 -8.046875 13.359375 -9.109375 C 15.835938 -10.328125 17.5625 -12.097656 18.53125 -14.421875 C 19.5 -16.753906 19.867188 -19.410156 19.640625 -22.390625 Z M 2.15625 -29 C 1.082031 -28.46875 0.0703125 -27.617188 -0.875 -26.453125 C -1.820312 -25.285156 -2.460938 -23.882812 -2.796875 -22.25 C -3.140625 -20.625 -2.972656 -18.863281 -2.296875 -16.96875 L 9.765625 -22.890625 C 10.609375 -23.296875 11.097656 -23.753906 11.234375 -24.265625 C 11.367188 -24.785156 11.28125 -25.375 10.96875 -26.03125 C 10.1875 -27.625 9.050781 -28.773438 7.5625 -29.484375 C 6.082031 -30.203125 4.28125 -30.039062 2.15625 -29 Z M 2.15625 -29 "/></g></g></g><g fill="#e4e2dd" fill-opacity="1"><g transform="translate(107.182342, 157.518344)"><g/></g></g><g fill="#e4e2dd" fill-opacity="1"><g transform="translate(117.478, 152.999134)"><g><path d="M 16.40625 -4.109375 C 15.289062 -3.796875 14.21875 -3.664062 13.1875 -3.71875 C 12.164062 -3.769531 11.222656 -3.890625 10.359375 -4.078125 C 9.492188 -4.265625 8.734375 -4.4375 8.078125 -4.59375 C 7.421875 -4.75 6.894531 -4.773438 6.5 -4.671875 C 5.988281 -4.523438 5.484375 -4.078125 4.984375 -3.328125 C 4.492188 -2.585938 4.164062 -1.859375 4 -1.140625 C 3.976562 -1.066406 3.9375 -1.019531 3.875 -1 C 3.8125 -0.988281 3.769531 -1.015625 3.75 -1.078125 C 3.625 -2.140625 3.46875 -3.148438 3.28125 -4.109375 C 3.09375 -5.066406 2.863281 -6.007812 2.59375 -6.9375 L -4.0625 -30.265625 C -4.4375 -31.546875 -4.972656 -32.5 -5.671875 -33.125 C -6.367188 -33.75 -7.453125 -33.785156 -8.921875 -33.234375 C -9.023438 -33.234375 -9.085938 -33.269531 -9.109375 -33.34375 C -9.128906 -33.425781 -9.09375 -33.484375 -9 -33.515625 C -8.425781 -33.890625 -7.734375 -34.351562 -6.921875 -34.90625 C -6.109375 -35.46875 -5.3125 -36.0625 -4.53125 -36.6875 C -3.757812 -37.3125 -3.128906 -37.847656 -2.640625 -38.296875 C -2.585938 -38.378906 -2.519531 -38.40625 -2.4375 -38.375 C -2.363281 -38.351562 -2.3125 -38.289062 -2.28125 -38.1875 L 1.234375 -25.875 L 2.71875 -20.375 L 2.8125 -20.40625 C 3.300781 -21.800781 3.910156 -23.144531 4.640625 -24.4375 C 5.378906 -25.738281 6.316406 -26.890625 7.453125 -27.890625 C 8.597656 -28.898438 10.003906 -29.644531 11.671875 -30.125 C 13.492188 -30.644531 15.300781 -30.691406 17.09375 -30.265625 C 18.882812 -29.835938 20.476562 -28.921875 21.875 -27.515625 C 23.28125 -26.117188 24.328125 -24.21875 25.015625 -21.8125 C 25.578125 -19.863281 25.738281 -17.9375 25.5 -16.03125 C 25.257812 -14.125 24.707031 -12.34375 23.84375 -10.6875 C 22.988281 -9.039062 21.914062 -7.640625 20.625 -6.484375 C 19.34375 -5.335938 17.9375 -4.546875 16.40625 -4.109375 Z M 16.1875 -4.625 C 17.789062 -5.082031 19.109375 -5.875 20.140625 -7 C 21.179688 -8.132812 21.820312 -9.660156 22.0625 -11.578125 C 22.3125 -13.503906 22.03125 -15.878906 21.21875 -18.703125 C 20.644531 -20.710938 19.835938 -22.472656 18.796875 -23.984375 C 17.753906 -25.492188 16.476562 -26.566406 14.96875 -27.203125 C 13.457031 -27.847656 11.675781 -27.878906 9.625 -27.296875 C 8.207031 -26.890625 6.960938 -26.003906 5.890625 -24.640625 C 4.828125 -23.273438 3.851562 -21.671875 2.96875 -19.828125 L 6.515625 -7.421875 C 7.316406 -6.785156 8.273438 -6.191406 9.390625 -5.640625 C 10.503906 -5.085938 11.660156 -4.707031 12.859375 -4.5 C 14.054688 -4.289062 15.164062 -4.332031 16.1875 -4.625 Z M 16.1875 -4.625 "/></g></g></g><g fill="#e4e2dd" fill-opacity="1"><g transform="translate(146.197207, 144.72597)"><g><path d="M 14.625 -1.640625 C 11.976562 -1.242188 9.585938 -1.414062 7.453125 -2.15625 C 5.328125 -2.894531 3.578125 -4.117188 2.203125 -5.828125 C 0.835938 -7.546875 -0.03125 -9.65625 -0.40625 -12.15625 C -0.789062 -14.707031 -0.519531 -17.085938 0.40625 -19.296875 C 1.34375 -21.503906 2.78125 -23.367188 4.71875 -24.890625 C 6.664062 -26.421875 8.976562 -27.390625 11.65625 -27.796875 C 14.25 -28.179688 16.597656 -27.988281 18.703125 -27.21875 C 20.816406 -26.457031 22.554688 -25.21875 23.921875 -23.5 C 25.296875 -21.789062 26.171875 -19.671875 26.546875 -17.140625 C 26.921875 -14.660156 26.640625 -12.3125 25.703125 -10.09375 C 24.773438 -7.882812 23.347656 -6.019531 21.421875 -4.5 C 19.492188 -2.976562 17.226562 -2.023438 14.625 -1.640625 Z M 15.515625 -2.421875 C 16.960938 -2.640625 18.269531 -3.257812 19.4375 -4.28125 C 20.613281 -5.300781 21.492188 -6.679688 22.078125 -8.421875 C 22.671875 -10.160156 22.789062 -12.210938 22.4375 -14.578125 C 22.164062 -16.328125 21.675781 -18 20.96875 -19.59375 C 20.257812 -21.195312 19.359375 -22.597656 18.265625 -23.796875 C 17.179688 -24.992188 15.945312 -25.878906 14.5625 -26.453125 C 13.175781 -27.023438 11.695312 -27.15625 10.125 -26.84375 C 8.78125 -26.613281 7.546875 -25.984375 6.421875 -24.953125 C 5.296875 -23.929688 4.460938 -22.5625 3.921875 -20.84375 C 3.390625 -19.125 3.296875 -17.09375 3.640625 -14.75 C 3.898438 -13.039062 4.375 -11.398438 5.0625 -9.828125 C 5.757812 -8.265625 6.632812 -6.890625 7.6875 -5.703125 C 8.738281 -4.515625 9.925781 -3.613281 11.25 -3 C 12.570312 -2.382812 13.992188 -2.191406 15.515625 -2.421875 Z M 15.515625 -2.421875 "/></g></g></g><g fill="#e4e2dd" fill-opacity="1"><g transform="translate(174.581964, 140.368226)"><g><path d="M 14.71875 0.21875 C 12.050781 0.28125 9.703125 -0.1875 7.671875 -1.1875 C 5.648438 -2.195312 4.066406 -3.640625 2.921875 -5.515625 C 1.785156 -7.390625 1.191406 -9.59375 1.140625 -12.125 C 1.078125 -14.695312 1.648438 -17.019531 2.859375 -19.09375 C 4.066406 -21.164062 5.726562 -22.832031 7.84375 -24.09375 C 9.957031 -25.363281 12.367188 -26.03125 15.078125 -26.09375 C 17.703125 -26.15625 20.007812 -25.671875 22 -24.640625 C 24 -23.617188 25.566406 -22.171875 26.703125 -20.296875 C 27.847656 -18.421875 28.453125 -16.203125 28.515625 -13.640625 C 28.566406 -11.140625 27.988281 -8.847656 26.78125 -6.765625 C 25.582031 -4.691406 23.929688 -3.019531 21.828125 -1.75 C 19.722656 -0.488281 17.351562 0.164062 14.71875 0.21875 Z M 15.703125 -0.4375 C 17.171875 -0.46875 18.550781 -0.914062 19.84375 -1.78125 C 21.132812 -2.644531 22.175781 -3.90625 22.96875 -5.5625 C 23.769531 -7.21875 24.144531 -9.242188 24.09375 -11.640625 C 24.0625 -13.410156 23.789062 -15.128906 23.28125 -16.796875 C 22.78125 -18.472656 22.066406 -19.972656 21.140625 -21.296875 C 20.210938 -22.628906 19.097656 -23.664062 17.796875 -24.40625 C 16.492188 -25.144531 15.039062 -25.460938 13.4375 -25.359375 C 12.082031 -25.296875 10.78125 -24.828125 9.53125 -23.953125 C 8.28125 -23.078125 7.28125 -21.816406 6.53125 -20.171875 C 5.78125 -18.535156 5.429688 -16.535156 5.484375 -14.171875 C 5.523438 -12.441406 5.789062 -10.753906 6.28125 -9.109375 C 6.769531 -7.472656 7.457031 -6 8.34375 -4.6875 C 9.238281 -3.375 10.304688 -2.328125 11.546875 -1.546875 C 12.785156 -0.773438 14.171875 -0.40625 15.703125 -0.4375 Z M 15.703125 -0.4375 "/></g></g></g><g fill="#e4e2dd" fill-opacity="1"><g transform="translate(203.256459, 139.583602)"><g><path d="M 31.578125 3.21875 C 31.710938 3.226562 31.773438 3.289062 31.765625 3.40625 C 31.753906 3.53125 31.679688 3.585938 31.546875 3.578125 C 30.222656 3.429688 29.304688 3.304688 28.796875 3.203125 C 28.285156 3.097656 27.785156 3.015625 27.296875 2.953125 L 24.703125 2.671875 C 24.203125 2.347656 23.722656 1.648438 23.265625 0.578125 C 22.816406 -0.492188 22.367188 -1.753906 21.921875 -3.203125 C 21.472656 -4.660156 21.007812 -6.101562 20.53125 -7.53125 C 20.050781 -8.957031 19.4375 -10.070312 18.6875 -10.875 C 17.9375 -11.6875 17.109375 -12.140625 16.203125 -12.234375 C 15.546875 -12.304688 14.820312 -12.265625 14.03125 -12.109375 C 13.25 -11.960938 12.519531 -11.738281 11.84375 -11.4375 L 10.1875 -10.375 L 9.546875 -4.5 C 9.398438 -3.207031 9.351562 -2.171875 9.40625 -1.390625 C 9.457031 -0.617188 9.726562 -0.0390625 10.21875 0.34375 C 10.71875 0.738281 11.554688 1.015625 12.734375 1.171875 C 12.898438 1.191406 12.976562 1.257812 12.96875 1.375 C 12.957031 1.5 12.867188 1.550781 12.703125 1.53125 C 11.878906 1.445312 11.238281 1.359375 10.78125 1.265625 C 10.320312 1.179688 9.953125 1.113281 9.671875 1.0625 C 9.390625 1.019531 9.066406 0.976562 8.703125 0.9375 L 5.265625 0.578125 C 4.929688 0.535156 4.617188 0.503906 4.328125 0.484375 C 4.035156 0.472656 3.648438 0.457031 3.171875 0.4375 C 2.703125 0.425781 2.039062 0.375 1.1875 0.28125 C 1.050781 0.269531 0.988281 0.203125 1 0.078125 C 1.007812 -0.0351562 1.082031 -0.0859375 1.21875 -0.078125 C 2.476562 0.0234375 3.390625 -0.0546875 3.953125 -0.328125 C 4.523438 -0.609375 4.914062 -1.117188 5.125 -1.859375 C 5.332031 -2.609375 5.507812 -3.628906 5.65625 -4.921875 L 8.34375 -29.6875 C 8.488281 -31.007812 8.351562 -32.082031 7.9375 -32.90625 C 7.53125 -33.738281 6.546875 -34.1875 4.984375 -34.25 C 4.878906 -34.257812 4.832031 -34.316406 4.84375 -34.421875 C 4.851562 -34.523438 4.910156 -34.570312 5.015625 -34.5625 C 5.691406 -34.6875 6.507812 -34.859375 7.46875 -35.078125 C 8.425781 -35.296875 9.378906 -35.535156 10.328125 -35.796875 C 11.285156 -36.054688 12.082031 -36.304688 12.71875 -36.546875 C 12.789062 -36.597656 12.859375 -36.601562 12.921875 -36.5625 C 12.984375 -36.53125 13.007812 -36.460938 13 -36.359375 L 10.265625 -11.15625 L 20.296875 -17.46875 C 22.390625 -18.78125 23.429688 -19.957031 23.421875 -21 C 23.410156 -22.039062 22.28125 -22.6875 20.03125 -22.9375 C 19.875 -22.945312 19.800781 -23.007812 19.8125 -23.125 C 19.820312 -23.238281 19.90625 -23.289062 20.0625 -23.28125 C 21.820312 -23.082031 23.289062 -22.894531 24.46875 -22.71875 C 25.644531 -22.550781 26.582031 -22.429688 27.28125 -22.359375 L 27.375 -22.34375 C 27.9375 -22.28125 28.679688 -22.222656 29.609375 -22.171875 C 30.535156 -22.117188 31.695312 -22.015625 33.09375 -21.859375 C 33.257812 -21.847656 33.335938 -21.785156 33.328125 -21.671875 C 33.316406 -21.554688 33.226562 -21.503906 33.0625 -21.515625 C 31.269531 -21.710938 29.363281 -21.398438 27.34375 -20.578125 C 25.332031 -19.753906 23.300781 -18.679688 21.25 -17.359375 L 14.328125 -12.984375 C 15.484375 -13.359375 16.609375 -13.488281 17.703125 -13.375 C 18.890625 -13.238281 20.082031 -12.769531 21.28125 -11.96875 C 22.488281 -11.175781 23.398438 -9.90625 24.015625 -8.15625 L 25.25 -4.640625 C 25.945312 -2.722656 26.570312 -1.210938 27.125 -0.109375 C 27.675781 0.984375 28.296875 1.773438 28.984375 2.265625 C 29.671875 2.753906 30.535156 3.070312 31.578125 3.21875 Z M 31.578125 3.21875 "/></g></g></g><g fill="#e4e2dd" fill-opacity="1"><g transform="translate(233.666191, 143.280508)"><g/></g></g><g fill="#e4e2dd" fill-opacity="1"><g transform="translate(244.75571, 144.997377)"><g><path d="M 5.109375 1.546875 C 4.765625 1.441406 4.445312 1.351562 4.15625 1.28125 C 3.863281 1.21875 3.488281 1.132812 3.03125 1.03125 C 2.570312 0.925781 1.929688 0.75 1.109375 0.5 C 0.972656 0.46875 0.921875 0.394531 0.953125 0.28125 C 0.992188 0.164062 1.082031 0.125 1.21875 0.15625 C 2.425781 0.488281 3.332031 0.570312 3.9375 0.40625 C 4.550781 0.238281 5.03125 -0.1875 5.375 -0.875 C 5.726562 -1.5625 6.09375 -2.53125 6.46875 -3.78125 L 9.75 -14.59375 C 10.269531 -16.3125 10.519531 -17.769531 10.5 -18.96875 C 10.488281 -20.164062 9.769531 -21.0625 8.34375 -21.65625 C 8.300781 -21.738281 8.289062 -21.8125 8.3125 -21.875 C 8.332031 -21.9375 8.378906 -21.972656 8.453125 -21.984375 C 9.617188 -21.835938 10.71875 -21.847656 11.75 -22.015625 C 12.78125 -22.179688 13.640625 -22.363281 14.328125 -22.5625 C 14.441406 -22.632812 14.535156 -22.601562 14.609375 -22.46875 C 14.898438 -21.625 14.960938 -20.570312 14.796875 -19.3125 C 14.628906 -18.0625 14.363281 -16.789062 14 -15.5 L 14.046875 -15.5 C 15.304688 -16.457031 16.6875 -17.25 18.1875 -17.875 C 19.6875 -18.507812 21.179688 -18.914062 22.671875 -19.09375 C 24.160156 -19.269531 25.492188 -19.175781 26.671875 -18.8125 C 29.453125 -17.96875 31.109375 -16.535156 31.640625 -14.515625 C 32.171875 -12.492188 31.910156 -9.742188 30.859375 -6.265625 L 28.109375 2.78125 C 27.734375 4.03125 27.488281 5.035156 27.375 5.796875 C 27.257812 6.554688 27.414062 7.175781 27.84375 7.65625 C 28.28125 8.144531 29.097656 8.585938 30.296875 8.984375 C 30.453125 9.035156 30.507812 9.117188 30.46875 9.234375 C 30.4375 9.347656 30.34375 9.378906 30.1875 9.328125 C 29.351562 9.078125 28.71875 8.863281 28.28125 8.6875 C 27.851562 8.519531 27.5 8.382812 27.21875 8.28125 C 26.9375 8.175781 26.617188 8.070312 26.265625 7.96875 L 22.96875 6.96875 C 22.644531 6.875 22.34375 6.789062 22.0625 6.71875 C 21.789062 6.65625 21.429688 6.578125 20.984375 6.484375 C 20.546875 6.390625 19.929688 6.222656 19.140625 5.984375 C 19.003906 5.941406 18.953125 5.863281 18.984375 5.75 C 19.023438 5.632812 19.113281 5.597656 19.25 5.640625 C 20.40625 5.953125 21.273438 6.019531 21.859375 5.84375 C 22.453125 5.675781 22.914062 5.242188 23.25 4.546875 C 23.582031 3.847656 23.9375 2.875 24.3125 1.625 L 26.953125 -7.078125 C 27.640625 -9.347656 27.941406 -11.15625 27.859375 -12.5 C 27.785156 -13.84375 27.410156 -14.859375 26.734375 -15.546875 C 26.054688 -16.242188 25.160156 -16.765625 24.046875 -17.109375 C 22.609375 -17.535156 21.070312 -17.613281 19.4375 -17.34375 C 17.8125 -17.082031 15.976562 -16.28125 13.9375 -14.9375 L 10.203125 -2.65625 C 9.828125 -1.40625 9.582031 -0.398438 9.46875 0.359375 C 9.351562 1.128906 9.503906 1.753906 9.921875 2.234375 C 10.347656 2.710938 11.128906 3.140625 12.265625 3.515625 C 12.421875 3.566406 12.476562 3.648438 12.4375 3.765625 C 12.40625 3.878906 12.3125 3.910156 12.15625 3.859375 C 10.976562 3.503906 10.179688 3.234375 9.765625 3.046875 C 9.347656 2.859375 8.898438 2.691406 8.421875 2.546875 Z M 5.109375 1.546875 "/></g></g></g><g fill="#e4e2dd" fill-opacity="1"><g transform="translate(274.388166, 153.962874)"><g><path d="M 13.171875 6.578125 C 10.742188 5.472656 8.832031 4.03125 7.4375 2.25 C 6.050781 0.46875 5.25 -1.507812 5.03125 -3.6875 C 4.820312 -5.875 5.238281 -8.125 6.28125 -10.4375 C 7.34375 -12.78125 8.863281 -14.625 10.84375 -15.96875 C 12.832031 -17.3125 15.054688 -18.09375 17.515625 -18.3125 C 19.984375 -18.53125 22.445312 -18.082031 24.90625 -16.96875 C 27.300781 -15.875 29.171875 -14.4375 30.515625 -12.65625 C 31.867188 -10.875 32.648438 -8.890625 32.859375 -6.703125 C 33.078125 -4.515625 32.65625 -2.257812 31.59375 0.0625 C 30.5625 2.34375 29.050781 4.160156 27.0625 5.515625 C 25.070312 6.867188 22.859375 7.65625 20.421875 7.875 C 17.984375 8.101562 15.566406 7.671875 13.171875 6.578125 Z M 14.328125 6.421875 C 15.660156 7.023438 17.097656 7.21875 18.640625 7 C 20.191406 6.78125 21.679688 6.097656 23.109375 4.953125 C 24.546875 3.804688 25.757812 2.144531 26.75 -0.03125 C 27.476562 -1.644531 27.976562 -3.3125 28.25 -5.03125 C 28.53125 -6.75 28.539062 -8.410156 28.28125 -10.015625 C 28.019531 -11.617188 27.460938 -13.035156 26.609375 -14.265625 C 25.765625 -15.503906 24.597656 -16.414062 23.109375 -17 C 21.859375 -17.550781 20.476562 -17.695312 18.96875 -17.4375 C 17.457031 -17.1875 16.007812 -16.488281 14.625 -15.34375 C 13.25 -14.195312 12.070312 -12.550781 11.09375 -10.40625 C 10.375 -8.820312 9.878906 -7.1875 9.609375 -5.5 C 9.335938 -3.8125 9.316406 -2.179688 9.546875 -0.609375 C 9.785156 0.960938 10.289062 2.367188 11.0625 3.609375 C 11.84375 4.847656 12.929688 5.785156 14.328125 6.421875 Z M 14.328125 6.421875 "/></g></g></g><g fill="#e4e2dd" fill-opacity="1"><g transform="translate(300.573346, 165.753506)"><g><path d="M 12.234375 8.1875 C 9.960938 6.789062 8.25 5.117188 7.09375 3.171875 C 5.9375 1.234375 5.390625 -0.832031 5.453125 -3.03125 C 5.523438 -5.226562 6.226562 -7.40625 7.5625 -9.5625 C 8.90625 -11.75 10.644531 -13.382812 12.78125 -14.46875 C 14.925781 -15.550781 17.226562 -16.046875 19.6875 -15.953125 C 22.15625 -15.859375 24.546875 -15.097656 26.859375 -13.671875 C 29.085938 -12.296875 30.757812 -10.632812 31.875 -8.6875 C 32.988281 -6.75 33.507812 -4.679688 33.4375 -2.484375 C 33.375 -0.296875 32.671875 1.882812 31.328125 4.0625 C 30.015625 6.1875 28.285156 7.796875 26.140625 8.890625 C 24.003906 9.984375 21.710938 10.484375 19.265625 10.390625 C 16.816406 10.304688 14.472656 9.570312 12.234375 8.1875 Z M 13.40625 8.171875 C 14.65625 8.941406 16.054688 9.316406 17.609375 9.296875 C 19.160156 9.285156 20.722656 8.800781 22.296875 7.84375 C 23.867188 6.894531 25.285156 5.398438 26.546875 3.359375 C 27.472656 1.847656 28.179688 0.253906 28.671875 -1.421875 C 29.160156 -3.097656 29.375 -4.742188 29.3125 -6.359375 C 29.257812 -7.984375 28.890625 -9.457031 28.203125 -10.78125 C 27.515625 -12.113281 26.46875 -13.171875 25.0625 -13.953125 C 23.894531 -14.640625 22.546875 -14.957031 21.015625 -14.90625 C 19.492188 -14.851562 17.972656 -14.34375 16.453125 -13.375 C 14.941406 -12.40625 13.5625 -10.914062 12.3125 -8.90625 C 11.40625 -7.4375 10.710938 -5.878906 10.234375 -4.234375 C 9.753906 -2.585938 9.53125 -0.972656 9.5625 0.609375 C 9.59375 2.203125 9.914062 3.660156 10.53125 4.984375 C 11.144531 6.304688 12.101562 7.367188 13.40625 8.171875 Z M 13.40625 8.171875 "/></g></g></g><g fill="#e4e2dd" fill-opacity="1"><g transform="translate(325.057002, 180.70027)"><g><path d="M 24.75 19.890625 C 24.851562 19.972656 24.867188 20.0625 24.796875 20.15625 C 24.722656 20.25 24.632812 20.253906 24.53125 20.171875 C 23.488281 19.328125 22.785156 18.722656 22.421875 18.359375 C 22.054688 17.992188 21.675781 17.648438 21.28125 17.328125 L 19.265625 15.6875 C 19.015625 15.144531 18.992188 14.300781 19.203125 13.15625 C 19.410156 12.007812 19.722656 10.703125 20.140625 9.234375 C 20.554688 7.765625 20.945312 6.300781 21.3125 4.84375 C 21.695312 3.394531 21.789062 2.128906 21.59375 1.046875 C 21.40625 -0.0351562 20.957031 -0.863281 20.25 -1.4375 C 19.738281 -1.851562 19.113281 -2.210938 18.375 -2.515625 C 17.632812 -2.816406 16.894531 -3.03125 16.15625 -3.15625 L 14.1875 -3.15625 L 10.453125 1.421875 C 9.628906 2.429688 9.03125 3.273438 8.65625 3.953125 C 8.28125 4.628906 8.191406 5.265625 8.390625 5.859375 C 8.585938 6.460938 9.140625 7.148438 10.046875 7.921875 C 10.171875 8.023438 10.195312 8.125 10.125 8.21875 C 10.050781 8.3125 9.953125 8.304688 9.828125 8.203125 C 9.179688 7.679688 8.6875 7.253906 8.34375 6.921875 C 8.007812 6.597656 7.734375 6.34375 7.515625 6.15625 C 7.304688 5.96875 7.0625 5.757812 6.78125 5.53125 L 4.109375 3.34375 C 3.847656 3.132812 3.597656 2.941406 3.359375 2.765625 C 3.117188 2.585938 2.804688 2.363281 2.421875 2.09375 C 2.035156 1.832031 1.507812 1.429688 0.84375 0.890625 C 0.738281 0.796875 0.722656 0.703125 0.796875 0.609375 C 0.867188 0.515625 0.957031 0.515625 1.0625 0.609375 C 2.0625 1.378906 2.875 1.800781 3.5 1.875 C 4.125 1.957031 4.726562 1.742188 5.3125 1.234375 C 5.894531 0.722656 6.597656 -0.0351562 7.421875 -1.046875 L 23.15625 -20.359375 C 24 -21.390625 24.46875 -22.367188 24.5625 -23.296875 C 24.664062 -24.222656 24.082031 -25.132812 22.8125 -26.03125 C 22.726562 -26.101562 22.71875 -26.175781 22.78125 -26.25 C 22.851562 -26.332031 22.929688 -26.335938 23.015625 -26.265625 C 23.660156 -26.003906 24.441406 -25.703125 25.359375 -25.359375 C 26.273438 -25.015625 27.203125 -24.695312 28.140625 -24.40625 C 29.085938 -24.113281 29.894531 -23.890625 30.5625 -23.734375 C 30.644531 -23.753906 30.703125 -23.726562 30.734375 -23.65625 C 30.773438 -23.582031 30.757812 -23.503906 30.6875 -23.421875 L 14.6875 -3.78125 L 26.53125 -3.609375 C 29 -3.566406 30.507812 -3.984375 31.0625 -4.859375 C 31.625 -5.742188 31.03125 -6.898438 29.28125 -8.328125 C 29.15625 -8.429688 29.128906 -8.523438 29.203125 -8.609375 C 29.273438 -8.703125 29.375 -8.695312 29.5 -8.59375 C 30.863281 -7.476562 31.992188 -6.523438 32.890625 -5.734375 C 33.785156 -4.953125 34.503906 -4.34375 35.046875 -3.90625 L 35.125 -3.84375 C 35.5625 -3.476562 36.15625 -3.019531 36.90625 -2.46875 C 37.65625 -1.914062 38.570312 -1.203125 39.65625 -0.328125 C 39.78125 -0.210938 39.804688 -0.109375 39.734375 -0.015625 C 39.660156 0.0664062 39.5625 0.0507812 39.4375 -0.0625 C 38.039062 -1.195312 36.269531 -1.96875 34.125 -2.375 C 31.988281 -2.78125 29.703125 -2.988281 27.265625 -3 L 19.078125 -3.09375 C 20.253906 -2.78125 21.269531 -2.273438 22.125 -1.578125 C 23.050781 -0.816406 23.800781 0.222656 24.375 1.546875 C 24.957031 2.867188 25.03125 4.425781 24.59375 6.21875 L 23.71875 9.84375 C 23.257812 11.832031 22.960938 13.4375 22.828125 14.65625 C 22.691406 15.882812 22.773438 16.890625 23.078125 17.671875 C 23.390625 18.460938 23.945312 19.203125 24.75 19.890625 Z M 24.75 19.890625 "/></g></g></g><g fill="#e4e2dd" fill-opacity="1"><g transform="translate(348.558265, 200.348953)"><g/></g></g><g clip-path="url(#c7d44671f0)"><g transform="matrix(1, 0, 0, 1, 65, 180)"><g clip-path="url(#a3d6247e33)"><g clip-path="url(#9e72c41a68)"><path fill="#e4e2dd" d="M 31.617188 5.597656 C 32.347656 32.304688 32.9375 32.894531 59.644531 33.625 C 32.9375 34.355469 32.347656 34.945312 31.617188 61.652344 C 30.886719 34.945312 30.296875 34.355469 3.589844 33.625 C 30.296875 32.894531 30.886719 32.304688 31.617188 5.597656 " fill-opacity="1" fill-rule="nonzero"/></g><g clip-path="url(#89b43d13f5)"><path fill="#e4e2dd" d="M 56.785156 38.355469 C 56.996094 46.058594 57.167969 46.230469 64.867188 46.441406 C 57.167969 46.648438 56.996094 46.820312 56.785156 54.523438 C 56.574219 46.820312 56.40625 46.648438 48.703125 46.441406 C 56.40625 46.230469 56.574219 46.058594 56.785156 38.355469 " fill-opacity="1" fill-rule="nonzero"/></g><g clip-path="url(#a24927cc33)"><path fill="#e4e2dd" d="M 12.398438 25.484375 C 12.078125 13.785156 11.820312 13.523438 0.117188 13.207031 C 11.820312 12.886719 12.078125 12.625 12.398438 0.925781 C 12.71875 12.625 12.976562 12.886719 24.675781 13.207031 C 12.976562 13.523438 12.71875 13.785156 12.398438 25.484375 " fill-opacity="1" fill-rule="nonzero"/></g></g></g></g><g clip-path="url(#28165b428c)"><path fill="#e4e2dd" d="M 283.761719 185.597656 C 283.03125 212.304688 282.441406 212.894531 255.734375 213.625 C 282.441406 214.355469 283.03125 214.945312 283.761719 241.652344 C 284.492188 214.945312 285.082031 214.355469 311.789062 213.625 C 285.082031 212.894531 284.492188 212.304688 283.761719 185.597656 " fill-opacity="1" fill-rule="nonzero"/></g><g clip-path="url(#b318d8745d)"><path fill="#e4e2dd" d="M 258.59375 218.355469 C 258.382812 226.058594 258.210938 226.230469 250.507812 226.441406 C 258.210938 226.648438 258.382812 226.820312 258.59375 234.523438 C 258.800781 226.820312 258.972656 226.648438 266.675781 226.441406 C 258.972656 226.230469 258.800781 226.058594 258.59375 218.355469 " fill-opacity="1" fill-rule="nonzero"/></g><g clip-path="url(#5301e40880)"><path fill="#e4e2dd" d="M 302.980469 205.484375 C 303.300781 193.785156 303.558594 193.523438 315.261719 193.207031 C 303.558594 192.886719 303.300781 192.625 302.980469 180.925781 C 302.660156 192.625 302.402344 192.886719 290.699219 193.207031 C 302.402344 193.523438 302.660156 193.785156 302.980469 205.484375 " fill-opacity="1" fill-rule="nonzero"/></g></svg>