<svg xmlns="http://www.w3.org/2000/svg" xmlns:xlink="http://www.w3.org/1999/xlink" width="500" zoomAndPan="magnify" viewBox="0 0 375 374.999991" height="500" preserveAspectRatio="xMidYMid meet" version="1.0"><defs><g/><clipPath id="1982213ea7"><path d="M 134.445312 173.175781 L 240.195312 173.175781 L 240.195312 240.675781 L 134.445312 240.675781 Z M 134.445312 173.175781 " clip-rule="nonzero"/></clipPath><clipPath id="bc59478bc0"><path d="M 65.121094 180.917969 L 129.621094 180.917969 L 129.621094 241.667969 L 65.121094 241.667969 Z M 65.121094 180.917969 " clip-rule="nonzero"/></clipPath><clipPath id="2cf54c82d1"><path d="M 3.480469 5.535156 L 59.679688 5.535156 L 59.679688 61.652344 L 3.480469 61.652344 Z M 3.480469 5.535156 " clip-rule="nonzero"/></clipPath><clipPath id="a21d0c6f89"><path d="M 48 38 L 64.621094 38 L 64.621094 55 L 48 55 Z M 48 38 " clip-rule="nonzero"/></clipPath><clipPath id="5f56631894"><path d="M 0.367188 0.925781 L 24.808594 0.925781 L 24.808594 25.566406 L 0.367188 25.566406 Z M 0.367188 0.925781 " clip-rule="nonzero"/></clipPath><clipPath id="d7494db8e3"><rect x="0" width="65" y="0" height="62"/></clipPath><clipPath id="ecb1b1726c"><path d="M 255.695312 185.535156 L 311.898438 185.535156 L 311.898438 241.652344 L 255.695312 241.652344 Z M 255.695312 185.535156 " clip-rule="nonzero"/></clipPath><clipPath id="1d073458e6"><path d="M 250.507812 218 L 267 218 L 267 235 L 250.507812 235 Z M 250.507812 218 " clip-rule="nonzero"/></clipPath><clipPath id="6fd068e746"><path d="M 290.570312 180.925781 L 315.007812 180.925781 L 315.007812 205.566406 L 290.570312 205.566406 Z M 290.570312 180.925781 " clip-rule="nonzero"/></clipPath></defs><g clip-path="url(#1982213ea7)"><path fill="#e4e2dd" d="M 239.480469 181.738281 L 235.339844 181.738281 L 235.339844 178.003906 C 235.339844 177.714844 235.101562 177.476562 234.8125 177.476562 L 229.609375 177.476562 L 229.609375 173.707031 C 229.609375 173.417969 229.371094 173.179688 229.082031 173.179688 L 206.964844 173.179688 C 195.015625 173.179688 188.890625 178.238281 186.648438 180.65625 C 184.402344 178.238281 178.28125 173.179688 166.332031 173.179688 L 144.214844 173.179688 C 143.921875 173.179688 143.6875 173.417969 143.6875 173.707031 L 143.6875 177.476562 L 139.644531 177.476562 C 139.355469 177.476562 139.117188 177.714844 139.117188 178.003906 L 139.117188 181.738281 L 134.972656 181.738281 C 134.683594 181.738281 134.445312 181.972656 134.445312 182.265625 L 134.445312 239.167969 C 134.445312 239.457031 134.679688 239.695312 134.96875 239.695312 L 185.945312 240.332031 C 185.984375 240.339844 186.023438 240.347656 186.066406 240.347656 C 186.105469 240.347656 186.140625 240.34375 186.179688 240.335938 L 187.222656 240.347656 C 187.222656 240.347656 187.226562 240.347656 187.226562 240.347656 C 187.230469 240.347656 187.230469 240.347656 187.234375 240.347656 L 239.484375 239.699219 C 239.773438 239.695312 240.007812 239.460938 240.007812 239.167969 L 240.007812 182.265625 C 240.007812 181.976562 239.773438 181.738281 239.480469 181.738281 Z M 135.503906 182.796875 L 139.117188 182.796875 L 139.117188 235.628906 C 139.117188 235.917969 139.355469 236.15625 139.644531 236.15625 L 163.4375 236.15625 C 170.707031 236.15625 178.789062 238.007812 183.367188 239.242188 L 135.503906 238.644531 Z M 185.941406 181.476562 C 185.753906 181.710938 185.652344 181.867188 185.625 181.90625 C 185.566406 181.992188 185.535156 182.09375 185.535156 182.199219 L 185.535156 237.59375 C 182.402344 235.046875 175.988281 230.800781 168.003906 230.800781 L 144.742188 230.800781 L 144.742188 174.238281 L 166.332031 174.238281 C 177.925781 174.238281 183.886719 179.273438 185.941406 181.476562 Z M 228.550781 174.238281 L 228.550781 230.804688 L 205.285156 230.804688 C 196.132812 230.804688 189.039062 236.382812 186.59375 238.585938 L 186.59375 182.367188 C 187.363281 181.34375 193.191406 174.238281 206.960938 174.238281 Z M 234.28125 235.097656 L 211.015625 235.097656 C 201.464844 235.097656 190.574219 238.234375 187.753906 239.097656 L 187.753906 238.984375 C 190.457031 236.679688 197.089844 231.855469 205.285156 231.855469 L 229.078125 231.855469 C 229.371094 231.855469 229.605469 231.621094 229.605469 231.328125 L 229.605469 178.535156 L 234.277344 178.535156 L 234.277344 235.097656 Z M 143.6875 231.332031 C 143.6875 231.621094 143.921875 231.859375 144.214844 231.859375 L 168.003906 231.859375 C 175.789062 231.859375 182.171875 236.21875 185.109375 238.628906 C 180.921875 237.433594 171.683594 235.097656 163.4375 235.097656 L 140.175781 235.097656 L 140.175781 178.535156 L 143.683594 178.535156 L 143.683594 231.332031 Z M 238.949219 238.644531 L 191.089844 239.242188 C 195.664062 238.007812 203.742188 236.15625 211.015625 236.15625 L 234.808594 236.15625 C 235.101562 236.15625 235.335938 235.917969 235.335938 235.628906 L 235.335938 182.796875 L 238.949219 182.796875 Z M 238.949219 238.644531 " fill-opacity="1" fill-rule="nonzero"/></g><g fill="#e4e2dd" fill-opacity="1"><g transform="translate(58.992053, 182.443414)"><g><path d="M 17.71875 -8.328125 C 17.070312 -8.015625 16.453125 -7.707031 15.859375 -7.40625 C 15.273438 -7.101562 14.519531 -6.710938 13.59375 -6.234375 C 12.664062 -5.753906 11.351562 -5.117188 9.65625 -4.328125 C 9.363281 -4.191406 9.191406 -4.195312 9.140625 -4.34375 C 9.085938 -4.5 9.191406 -4.640625 9.453125 -4.765625 C 11.003906 -5.492188 12.226562 -6.171875 13.125 -6.796875 C 14.03125 -7.421875 14.632812 -8.117188 14.9375 -8.890625 C 15.238281 -9.671875 15.222656 -10.671875 14.890625 -11.890625 C 14.554688 -13.117188 13.941406 -14.691406 13.046875 -16.609375 L -0.515625 -45.484375 L -3.296875 -44.1875 C -5.285156 -43.25 -6.859375 -41.96875 -8.015625 -40.34375 C -9.179688 -38.71875 -9.910156 -36.5625 -10.203125 -33.875 C -10.492188 -31.195312 -10.351562 -27.800781 -9.78125 -23.6875 C -9.789062 -23.582031 -9.847656 -23.503906 -9.953125 -23.453125 C -10.066406 -23.398438 -10.140625 -23.460938 -10.171875 -23.640625 L -14.65625 -42.109375 C -14.6875 -42.265625 -14.597656 -42.304688 -14.390625 -42.234375 C -13.378906 -41.585938 -12.226562 -41.425781 -10.9375 -41.75 C -9.644531 -42.070312 -7.898438 -42.753906 -5.703125 -43.796875 L 8.765625 -50.59375 C 10.867188 -51.582031 12.488281 -52.484375 13.625 -53.296875 C 14.769531 -54.109375 15.40625 -55.101562 15.53125 -56.28125 C 15.625 -56.539062 15.726562 -56.59375 15.84375 -56.4375 L 27.171875 -41.171875 C 27.285156 -41.035156 27.296875 -40.945312 27.203125 -40.90625 C 27.117188 -40.863281 27.023438 -40.867188 26.921875 -40.921875 C 24.148438 -44.003906 21.628906 -46.285156 19.359375 -47.765625 C 17.085938 -49.242188 14.953125 -50.050781 12.953125 -50.1875 C 10.960938 -50.332031 8.957031 -49.929688 6.9375 -48.984375 L 4.21875 -47.703125 L 17.78125 -18.828125 C 18.675781 -16.910156 19.488281 -15.429688 20.21875 -14.390625 C 20.945312 -13.359375 21.703125 -12.707031 22.484375 -12.4375 C 23.273438 -12.175781 24.195312 -12.191406 25.25 -12.484375 C 26.3125 -12.785156 27.625 -13.300781 29.1875 -14.03125 C 29.4375 -14.144531 29.601562 -14.132812 29.6875 -14 C 29.78125 -13.863281 29.679688 -13.726562 29.390625 -13.59375 C 27.691406 -12.789062 26.363281 -12.1875 25.40625 -11.78125 C 24.445312 -11.375 23.671875 -11.046875 23.078125 -10.796875 C 22.484375 -10.546875 21.84375 -10.257812 21.15625 -9.9375 Z M 17.71875 -8.328125 "/></g></g></g><g fill="#e4e2dd" fill-opacity="1"><g transform="translate(96.188187, 164.985327)"><g><path d="M 6.09375 -1.859375 C 5.707031 -1.742188 5.34375 -1.617188 5 -1.484375 C 4.664062 -1.359375 4.234375 -1.195312 3.703125 -1 C 3.179688 -0.800781 2.421875 -0.550781 1.421875 -0.25 C 1.273438 -0.195312 1.179688 -0.234375 1.140625 -0.359375 C 1.109375 -0.492188 1.164062 -0.585938 1.3125 -0.640625 C 2.75 -1.117188 3.710938 -1.644531 4.203125 -2.21875 C 4.703125 -2.789062 4.894531 -3.539062 4.78125 -4.46875 C 4.664062 -5.394531 4.382812 -6.609375 3.9375 -8.109375 L -4.828125 -36.65625 C -5.296875 -38.1875 -5.953125 -39.3125 -6.796875 -40.03125 C -7.640625 -40.757812 -8.945312 -40.796875 -10.71875 -40.140625 C -10.832031 -40.109375 -10.90625 -40.148438 -10.9375 -40.265625 C -10.976562 -40.378906 -10.941406 -40.453125 -10.828125 -40.484375 C -10.128906 -40.941406 -9.296875 -41.515625 -8.328125 -42.203125 C -7.367188 -42.890625 -6.425781 -43.609375 -5.5 -44.359375 C -4.582031 -45.109375 -3.832031 -45.753906 -3.25 -46.296875 C -3.0625 -46.523438 -2.925781 -46.503906 -2.84375 -46.234375 L 1.59375 -31.625 L 3.53125 -24.875 L 3.640625 -24.90625 C 4.242188 -26.675781 5.070312 -28.363281 6.125 -29.96875 C 7.1875 -31.570312 8.394531 -32.96875 9.75 -34.15625 C 11.113281 -35.34375 12.5 -36.148438 13.90625 -36.578125 C 17.125 -37.554688 19.71875 -37.21875 21.6875 -35.5625 C 23.664062 -33.90625 25.328125 -30.875 26.671875 -26.46875 L 29.859375 -16.015625 C 30.304688 -14.515625 30.734375 -13.34375 31.140625 -12.5 C 31.546875 -11.65625 32.117188 -11.132812 32.859375 -10.9375 C 33.609375 -10.75 34.722656 -10.859375 36.203125 -11.265625 C 36.390625 -11.328125 36.5 -11.289062 36.53125 -11.15625 C 36.570312 -11.03125 36.5 -10.9375 36.3125 -10.875 C 35.3125 -10.570312 34.53125 -10.351562 33.96875 -10.21875 C 33.40625 -10.082031 32.957031 -9.972656 32.625 -9.890625 C 32.289062 -9.816406 31.914062 -9.71875 31.5 -9.59375 L 27.53125 -8.390625 C 27.144531 -8.265625 26.789062 -8.140625 26.46875 -8.015625 C 26.15625 -7.898438 25.742188 -7.742188 25.234375 -7.546875 C 24.722656 -7.359375 23.988281 -7.117188 23.03125 -6.828125 C 22.882812 -6.785156 22.789062 -6.828125 22.75 -6.953125 C 22.71875 -7.085938 22.773438 -7.175781 22.921875 -7.21875 C 24.273438 -7.675781 25.191406 -8.1875 25.671875 -8.75 C 26.160156 -9.320312 26.335938 -10.066406 26.203125 -10.984375 C 26.066406 -11.910156 25.773438 -13.125 25.328125 -14.625 L 21.953125 -25.703125 C 21.128906 -28.390625 20.203125 -30.304688 19.171875 -31.453125 C 18.148438 -32.609375 17.070312 -33.265625 15.9375 -33.421875 C 14.8125 -33.585938 13.632812 -33.484375 12.40625 -33.109375 C 10.488281 -32.523438 8.859375 -31.515625 7.515625 -30.078125 C 6.171875 -28.640625 4.953125 -26.6875 3.859375 -24.21875 L 8.359375 -9.453125 C 8.804688 -7.953125 9.234375 -6.78125 9.640625 -5.9375 C 10.046875 -5.101562 10.601562 -4.582031 11.3125 -4.375 C 12.019531 -4.175781 13.078125 -4.269531 14.484375 -4.65625 C 14.671875 -4.707031 14.78125 -4.664062 14.8125 -4.53125 C 14.851562 -4.40625 14.78125 -4.316406 14.59375 -4.265625 C 13.175781 -3.828125 12.207031 -3.5625 11.6875 -3.46875 C 11.175781 -3.375 10.632812 -3.238281 10.0625 -3.0625 Z M 6.09375 -1.859375 "/></g></g></g><g fill="#e4e2dd" fill-opacity="1"><g transform="translate(131.894767, 154.160505)"><g><path d="M 30.28125 -19.109375 C 30.40625 -19.273438 30.550781 -19.34375 30.71875 -19.3125 C 30.894531 -19.28125 30.957031 -19.160156 30.90625 -18.953125 C 30.3125 -16.492188 29.421875 -14.066406 28.234375 -11.671875 C 27.054688 -9.285156 25.515625 -7.226562 23.609375 -5.5 C 21.710938 -3.78125 19.34375 -2.679688 16.5 -2.203125 C 13.582031 -1.710938 10.894531 -1.9375 8.4375 -2.875 C 5.976562 -3.8125 3.941406 -5.320312 2.328125 -7.40625 C 0.722656 -9.488281 -0.320312 -11.972656 -0.8125 -14.859375 C -1.1875 -17.066406 -1.09375 -19.210938 -0.53125 -21.296875 C 0.03125 -23.378906 0.960938 -25.285156 2.265625 -27.015625 C 3.578125 -28.742188 5.148438 -30.175781 6.984375 -31.3125 C 8.828125 -32.457031 10.832031 -33.210938 13 -33.578125 C 15.289062 -33.972656 17.398438 -33.851562 19.328125 -33.21875 C 21.265625 -32.59375 22.882812 -31.609375 24.1875 -30.265625 C 25.5 -28.921875 26.304688 -27.359375 26.609375 -25.578125 C 26.703125 -24.992188 26.734375 -24.351562 26.703125 -23.65625 L 3.171875 -19.671875 C 3.171875 -19.503906 3.179688 -19.34375 3.203125 -19.1875 C 3.234375 -19.03125 3.265625 -18.851562 3.296875 -18.65625 C 3.742188 -16.039062 4.617188 -13.675781 5.921875 -11.5625 C 7.234375 -9.457031 8.945312 -7.875 11.0625 -6.8125 C 13.175781 -5.75 15.648438 -5.460938 18.484375 -5.953125 C 21.765625 -6.503906 24.363281 -7.953125 26.28125 -10.296875 C 28.195312 -12.648438 29.53125 -15.585938 30.28125 -19.109375 Z M 12.359375 -32.6875 C 10.941406 -32.445312 9.488281 -31.8125 8 -30.78125 C 6.507812 -29.757812 5.296875 -28.363281 4.359375 -26.59375 C 3.421875 -24.832031 3.007812 -22.742188 3.125 -20.328125 L 19.078125 -23.03125 C 20.171875 -23.21875 20.882812 -23.582031 21.21875 -24.125 C 21.5625 -24.675781 21.660156 -25.382812 21.515625 -26.25 C 21.160156 -28.34375 20.242188 -30.054688 18.765625 -31.390625 C 17.296875 -32.734375 15.160156 -33.164062 12.359375 -32.6875 Z M 12.359375 -32.6875 "/></g></g></g><g fill="#e4e2dd" fill-opacity="1"><g transform="translate(164.401813, 149.01573)"><g/></g></g><g fill="#e4e2dd" fill-opacity="1"><g transform="translate(177.894021, 147.315336)"><g><path d="M 20.3125 0.84375 C 18.90625 0.832031 17.617188 0.617188 16.453125 0.203125 C 15.296875 -0.203125 14.25 -0.660156 13.3125 -1.171875 C 12.375 -1.679688 11.554688 -2.140625 10.859375 -2.546875 C 10.171875 -2.953125 9.585938 -3.160156 9.109375 -3.171875 C 8.460938 -3.171875 7.722656 -2.820312 6.890625 -2.125 C 6.066406 -1.4375 5.429688 -0.710938 4.984375 0.046875 C 4.941406 0.128906 4.878906 0.171875 4.796875 0.171875 C 4.722656 0.171875 4.6875 0.128906 4.6875 0.046875 C 4.894531 -1.234375 5.050781 -2.453125 5.15625 -3.609375 C 5.269531 -4.773438 5.332031 -5.941406 5.34375 -7.109375 L 5.609375 -36.234375 C 5.628906 -37.835938 5.34375 -39.125 4.75 -40.09375 C 4.164062 -41.0625 2.925781 -41.472656 1.03125 -41.328125 C 0.914062 -41.367188 0.859375 -41.4375 0.859375 -41.53125 C 0.867188 -41.632812 0.929688 -41.6875 1.046875 -41.6875 C 1.847656 -41.925781 2.8125 -42.226562 3.9375 -42.59375 C 5.070312 -42.96875 6.1875 -43.378906 7.28125 -43.828125 C 8.382812 -44.273438 9.300781 -44.675781 10.03125 -45.03125 C 10.113281 -45.101562 10.191406 -45.109375 10.265625 -45.046875 C 10.347656 -44.992188 10.390625 -44.90625 10.390625 -44.78125 L 10.234375 -29.40625 L 10.0625 -22.5625 L 10.171875 -22.5625 C 11.234375 -23.988281 12.410156 -25.328125 13.703125 -26.578125 C 14.992188 -27.828125 16.460938 -28.832031 18.109375 -29.59375 C 19.765625 -30.363281 21.632812 -30.738281 23.71875 -30.71875 C 26 -30.695312 28.09375 -30.140625 30 -29.046875 C 31.914062 -27.953125 33.445312 -26.359375 34.59375 -24.265625 C 35.738281 -22.171875 36.296875 -19.617188 36.265625 -16.609375 C 36.242188 -14.171875 35.769531 -11.890625 34.84375 -9.765625 C 33.925781 -7.648438 32.6875 -5.789062 31.125 -4.1875 C 29.570312 -2.582031 27.859375 -1.335938 25.984375 -0.453125 C 24.117188 0.429688 22.226562 0.863281 20.3125 0.84375 Z M 20.25 0.1875 C 22.25 0.207031 24.035156 -0.253906 25.609375 -1.203125 C 27.179688 -2.148438 28.4375 -3.691406 29.375 -5.828125 C 30.320312 -7.960938 30.8125 -10.789062 30.84375 -14.3125 C 30.863281 -16.84375 30.53125 -19.148438 29.84375 -21.234375 C 29.164062 -23.316406 28.0625 -24.988281 26.53125 -26.25 C 25 -27.507812 22.953125 -28.148438 20.390625 -28.171875 C 18.628906 -28.191406 16.898438 -27.597656 15.203125 -26.390625 C 13.515625 -25.179688 11.835938 -23.660156 10.171875 -21.828125 L 10.03125 -6.328125 C 10.738281 -5.316406 11.640625 -4.304688 12.734375 -3.296875 C 13.828125 -2.296875 15.03125 -1.46875 16.34375 -0.8125 C 17.664062 -0.15625 18.96875 0.175781 20.25 0.1875 Z M 20.25 0.1875 "/></g></g></g><g fill="#e4e2dd" fill-opacity="1"><g transform="translate(213.929574, 147.585182)"><g><path d="M 17.390625 3.09375 C 14.222656 2.65625 11.535156 1.644531 9.328125 0.0625 C 7.128906 -1.519531 5.53125 -3.53125 4.53125 -5.96875 C 3.539062 -8.414062 3.257812 -11.144531 3.6875 -14.15625 C 4.113281 -17.21875 5.238281 -19.863281 7.0625 -22.09375 C 8.882812 -24.320312 11.175781 -25.984375 13.9375 -27.078125 C 16.695312 -28.171875 19.679688 -28.492188 22.890625 -28.046875 C 26.035156 -27.609375 28.6875 -26.585938 30.84375 -24.984375 C 33.007812 -23.390625 34.585938 -21.375 35.578125 -18.9375 C 36.578125 -16.5 36.863281 -13.75 36.4375 -10.6875 C 36.019531 -7.707031 34.894531 -5.101562 33.0625 -2.875 C 31.226562 -0.644531 28.941406 1.015625 26.203125 2.109375 C 23.460938 3.203125 20.523438 3.53125 17.390625 3.09375 Z M 18.6875 2.484375 C 20.445312 2.722656 22.175781 2.457031 23.875 1.6875 C 25.582031 0.914062 27.066406 -0.367188 28.328125 -2.171875 C 29.597656 -3.972656 30.429688 -6.304688 30.828125 -9.171875 C 31.117188 -11.265625 31.125 -13.351562 30.84375 -15.4375 C 30.570312 -17.519531 30.007812 -19.4375 29.15625 -21.1875 C 28.3125 -22.945312 27.1875 -24.390625 25.78125 -25.515625 C 24.382812 -26.640625 22.734375 -27.289062 20.828125 -27.46875 C 19.191406 -27.675781 17.550781 -27.375 15.90625 -26.5625 C 14.257812 -25.75 12.832031 -24.445312 11.625 -22.65625 C 10.425781 -20.863281 9.628906 -18.5625 9.234375 -15.75 C 8.953125 -13.695312 8.941406 -11.648438 9.203125 -9.609375 C 9.460938 -7.566406 10 -5.675781 10.8125 -3.9375 C 11.625 -2.207031 12.679688 -0.769531 13.984375 0.375 C 15.296875 1.519531 16.863281 2.222656 18.6875 2.484375 Z M 18.6875 2.484375 "/></g></g></g><g fill="#e4e2dd" fill-opacity="1"><g transform="translate(248.240365, 152.26673)"><g><path d="M 16.859375 5.28125 C 13.773438 4.4375 11.234375 3.085938 9.234375 1.234375 C 7.242188 -0.609375 5.910156 -2.804688 5.234375 -5.359375 C 4.566406 -7.910156 4.632812 -10.648438 5.4375 -13.578125 C 6.25 -16.566406 7.703125 -19.046875 9.796875 -21.015625 C 11.890625 -22.992188 14.375 -24.351562 17.25 -25.09375 C 20.132812 -25.832031 23.140625 -25.773438 26.265625 -24.921875 C 29.316406 -24.097656 31.8125 -22.753906 33.75 -20.890625 C 35.695312 -19.023438 37.007812 -16.820312 37.6875 -14.28125 C 38.363281 -11.738281 38.296875 -8.976562 37.484375 -6 C 36.703125 -3.09375 35.257812 -0.648438 33.15625 1.328125 C 31.050781 3.304688 28.570312 4.664062 25.71875 5.40625 C 22.875 6.144531 19.921875 6.101562 16.859375 5.28125 Z M 18.234375 4.828125 C 19.941406 5.285156 21.6875 5.238281 23.46875 4.6875 C 25.25 4.144531 26.878906 3.054688 28.359375 1.421875 C 29.847656 -0.203125 30.972656 -2.40625 31.734375 -5.1875 C 32.285156 -7.226562 32.554688 -9.300781 32.546875 -11.40625 C 32.535156 -13.507812 32.21875 -15.484375 31.59375 -17.328125 C 30.976562 -19.171875 30.050781 -20.738281 28.8125 -22.03125 C 27.570312 -23.332031 26.007812 -24.191406 24.125 -24.609375 C 22.539062 -25.023438 20.878906 -24.929688 19.140625 -24.328125 C 17.398438 -23.734375 15.816406 -22.625 14.390625 -21 C 12.972656 -19.382812 11.890625 -17.203125 11.140625 -14.453125 C 10.597656 -12.453125 10.328125 -10.421875 10.328125 -8.359375 C 10.335938 -6.304688 10.632812 -4.367188 11.21875 -2.546875 C 11.800781 -0.722656 12.671875 0.835938 13.828125 2.140625 C 14.984375 3.441406 16.453125 4.335938 18.234375 4.828125 Z M 18.234375 4.828125 "/></g></g></g><g fill="#e4e2dd" fill-opacity="1"><g transform="translate(281.665605, 161.179942)"><g><path d="M 35.296875 14.484375 C 35.441406 14.546875 35.484375 14.640625 35.421875 14.765625 C 35.367188 14.898438 35.269531 14.9375 35.125 14.875 C 33.644531 14.257812 32.628906 13.800781 32.078125 13.5 C 31.535156 13.207031 30.988281 12.945312 30.4375 12.71875 L 27.546875 11.515625 C 27.078125 10.960938 26.765625 9.992188 26.609375 8.609375 C 26.453125 7.222656 26.363281 5.613281 26.34375 3.78125 C 26.332031 1.945312 26.296875 0.128906 26.234375 -1.671875 C 26.148438 -3.484375 25.8125 -4.976562 25.21875 -6.15625 C 24.632812 -7.332031 23.84375 -8.128906 22.84375 -8.546875 C 22.101562 -8.859375 21.253906 -9.0625 20.296875 -9.15625 C 19.335938 -9.257812 18.421875 -9.253906 17.546875 -9.140625 L 15.265625 -8.46875 L 12.53125 -1.921875 C 11.925781 -0.484375 11.519531 0.6875 11.3125 1.59375 C 11.101562 2.507812 11.21875 3.273438 11.65625 3.890625 C 12.09375 4.503906 12.96875 5.109375 14.28125 5.703125 C 14.46875 5.785156 14.53125 5.890625 14.46875 6.015625 C 14.414062 6.148438 14.296875 6.175781 14.109375 6.09375 C 13.179688 5.707031 12.46875 5.390625 11.96875 5.140625 C 11.476562 4.890625 11.078125 4.6875 10.765625 4.53125 C 10.460938 4.382812 10.109375 4.222656 9.703125 4.046875 L 5.875 2.453125 C 5.5 2.296875 5.140625 2.160156 4.796875 2.046875 C 4.460938 1.929688 4.023438 1.78125 3.484375 1.59375 C 2.953125 1.414062 2.207031 1.125 1.25 0.71875 C 1.101562 0.664062 1.054688 0.570312 1.109375 0.4375 C 1.171875 0.3125 1.273438 0.273438 1.421875 0.328125 C 2.835938 0.878906 3.914062 1.09375 4.65625 0.96875 C 5.40625 0.84375 6.03125 0.390625 6.53125 -0.390625 C 7.039062 -1.179688 7.597656 -2.296875 8.203125 -3.734375 L 19.734375 -31.34375 C 20.359375 -32.820312 20.570312 -34.109375 20.375 -35.203125 C 20.1875 -36.296875 19.203125 -37.15625 17.421875 -37.78125 C 17.304688 -37.820312 17.269531 -37.898438 17.3125 -38.015625 C 17.363281 -38.128906 17.445312 -38.164062 17.5625 -38.125 C 18.382812 -38.03125 19.382812 -37.941406 20.5625 -37.859375 C 21.75 -37.773438 22.9375 -37.726562 24.125 -37.71875 C 25.3125 -37.707031 26.300781 -37.722656 27.09375 -37.765625 C 27.21875 -37.804688 27.304688 -37.789062 27.359375 -37.71875 C 27.410156 -37.65625 27.414062 -37.570312 27.375 -37.46875 L 15.640625 -9.359375 L 29.328125 -13.203125 C 32.191406 -14.003906 33.796875 -15.003906 34.140625 -16.203125 C 34.492188 -17.410156 33.414062 -18.539062 30.90625 -19.59375 C 30.726562 -19.664062 30.664062 -19.765625 30.71875 -19.890625 C 30.769531 -20.023438 30.882812 -20.054688 31.0625 -19.984375 C 33.03125 -19.160156 34.65625 -18.445312 35.9375 -17.84375 C 37.21875 -17.238281 38.242188 -16.773438 39.015625 -16.453125 L 39.140625 -16.40625 C 39.765625 -16.144531 40.609375 -15.828125 41.671875 -15.453125 C 42.734375 -15.078125 44.035156 -14.566406 45.578125 -13.921875 C 45.773438 -13.835938 45.847656 -13.726562 45.796875 -13.59375 C 45.742188 -13.46875 45.617188 -13.445312 45.421875 -13.53125 C 43.429688 -14.351562 41.132812 -14.632812 38.53125 -14.375 C 35.925781 -14.113281 33.210938 -13.578125 30.390625 -12.765625 L 20.9375 -10.0625 C 22.394531 -10.113281 23.734375 -9.882812 24.953125 -9.375 C 26.273438 -8.820312 27.488281 -7.878906 28.59375 -6.546875 C 29.707031 -5.210938 30.328125 -3.429688 30.453125 -1.203125 L 30.6875 3.25 C 30.832031 5.6875 31.03125 7.632812 31.28125 9.09375 C 31.539062 10.550781 31.984375 11.679688 32.609375 12.484375 C 33.234375 13.285156 34.128906 13.953125 35.296875 14.484375 Z M 35.296875 14.484375 "/></g></g></g><g fill="#e4e2dd" fill-opacity="1"><g transform="translate(315.522978, 175.850033)"><g/></g></g><g fill="#e4e2dd" fill-opacity="1"><g transform="translate(118.274226, 281.102991)"><g><path d="M 48.890625 -23.296875 C 49.054688 -23.242188 49.125 -23.160156 49.09375 -23.046875 C 49.0625 -22.929688 48.960938 -22.898438 48.796875 -22.953125 C 47.023438 -23.421875 45.5 -23.066406 44.21875 -21.890625 C 42.945312 -20.722656 42.035156 -19.125 41.484375 -17.09375 L 34.453125 9.1875 C 34.421875 9.28125 34.351562 9.320312 34.25 9.3125 C 34.144531 9.300781 34.078125 9.238281 34.046875 9.125 L 15.390625 -27.5 L 9.765625 -6.5 C 9.347656 -4.957031 9.1875 -3.503906 9.28125 -2.140625 C 9.382812 -0.773438 9.769531 0.390625 10.4375 1.359375 C 11.113281 2.328125 12.113281 2.988281 13.4375 3.34375 C 13.59375 3.382812 13.648438 3.46875 13.609375 3.59375 C 13.578125 3.726562 13.484375 3.773438 13.328125 3.734375 C 11.847656 3.335938 10.609375 2.976562 9.609375 2.65625 C 8.617188 2.332031 7.816406 2.085938 7.203125 1.921875 C 6.679688 1.785156 5.945312 1.617188 5 1.421875 C 4.050781 1.222656 2.898438 0.941406 1.546875 0.578125 C 1.421875 0.546875 1.375 0.46875 1.40625 0.34375 C 1.4375 0.226562 1.515625 0.1875 1.640625 0.21875 C 3.441406 0.707031 4.972656 0.363281 6.234375 -0.8125 C 7.503906 -1.988281 8.410156 -3.59375 8.953125 -5.625 L 13.65625 -23.171875 C 14.1875 -25.128906 14.535156 -26.691406 14.703125 -27.859375 C 14.878906 -29.035156 14.863281 -29.945312 14.65625 -30.59375 C 14.457031 -31.238281 14.0625 -31.734375 13.46875 -32.078125 C 12.875 -32.429688 12.054688 -32.742188 11.015625 -33.015625 C 10.898438 -33.046875 10.847656 -33.132812 10.859375 -33.28125 C 10.878906 -33.4375 10.96875 -33.492188 11.125 -33.453125 C 12.257812 -33.148438 13.125 -32.898438 13.71875 -32.703125 C 14.320312 -32.503906 14.820312 -32.335938 15.21875 -32.203125 C 15.625 -32.066406 16.035156 -31.941406 16.453125 -31.828125 L 18.4375 -31.296875 L 35.453125 3.234375 L 40.671875 -16.234375 C 41.085938 -17.773438 41.242188 -19.226562 41.140625 -20.59375 C 41.046875 -21.96875 40.660156 -23.132812 39.984375 -24.09375 C 39.316406 -25.050781 38.328125 -25.707031 37.015625 -26.0625 C 36.878906 -26.09375 36.828125 -26.171875 36.859375 -26.296875 C 36.890625 -26.429688 36.972656 -26.484375 37.109375 -26.453125 C 38.617188 -26.046875 39.867188 -25.679688 40.859375 -25.359375 C 41.847656 -25.046875 42.648438 -24.8125 43.265625 -24.65625 C 43.804688 -24.507812 44.539062 -24.335938 45.46875 -24.140625 C 46.394531 -23.941406 47.535156 -23.660156 48.890625 -23.296875 Z M 48.890625 -23.296875 "/></g></g></g><g fill="#e4e2dd" fill-opacity="1"><g transform="translate(161.331373, 291.753841)"><g><path d="M 14.640625 1.390625 C 11.984375 1.234375 9.6875 0.578125 7.75 -0.578125 C 5.8125 -1.742188 4.347656 -3.304688 3.359375 -5.265625 C 2.367188 -7.222656 1.945312 -9.46875 2.09375 -12 C 2.238281 -14.5625 2.992188 -16.828125 4.359375 -18.796875 C 5.722656 -20.773438 7.507812 -22.3125 9.71875 -23.40625 C 11.9375 -24.5 14.394531 -24.96875 17.09375 -24.8125 C 19.71875 -24.65625 21.976562 -23.988281 23.875 -22.8125 C 25.78125 -21.644531 27.226562 -20.078125 28.21875 -18.109375 C 29.21875 -16.148438 29.640625 -13.894531 29.484375 -11.34375 C 29.347656 -8.84375 28.59375 -6.601562 27.21875 -4.625 C 25.851562 -2.65625 24.070312 -1.125 21.875 -0.03125 C 19.6875 1.0625 17.273438 1.535156 14.640625 1.390625 Z M 15.671875 0.796875 C 17.140625 0.878906 18.550781 0.546875 19.90625 -0.203125 C 21.269531 -0.960938 22.410156 -2.132812 23.328125 -3.71875 C 24.253906 -5.300781 24.789062 -7.289062 24.9375 -9.6875 C 25.03125 -11.457031 24.894531 -13.191406 24.53125 -14.890625 C 24.175781 -16.597656 23.582031 -18.148438 22.75 -19.546875 C 21.925781 -20.953125 20.894531 -22.070312 19.65625 -22.90625 C 18.425781 -23.75 17.007812 -24.179688 15.40625 -24.203125 C 14.039062 -24.242188 12.703125 -23.878906 11.390625 -23.109375 C 10.078125 -22.335938 8.976562 -21.164062 8.09375 -19.59375 C 7.21875 -18.019531 6.710938 -16.054688 6.578125 -13.703125 C 6.484375 -11.972656 6.613281 -10.269531 6.96875 -8.59375 C 7.332031 -6.914062 7.90625 -5.382812 8.6875 -4 C 9.476562 -2.625 10.457031 -1.5 11.625 -0.625 C 12.800781 0.238281 14.148438 0.710938 15.671875 0.796875 Z M 15.671875 0.796875 "/></g></g></g><g fill="#e4e2dd" fill-opacity="1"><g transform="translate(193.607038, 293.416275)"><g><path d="M 14.671875 -1.125 C 12.023438 -0.820312 9.644531 -1.078125 7.53125 -1.890625 C 5.425781 -2.703125 3.71875 -3.988281 2.40625 -5.75 C 1.09375 -7.519531 0.296875 -9.660156 0.015625 -12.171875 C -0.285156 -14.722656 0.0664062 -17.085938 1.078125 -19.265625 C 2.085938 -21.453125 3.585938 -23.269531 5.578125 -24.71875 C 7.578125 -26.175781 9.921875 -27.054688 12.609375 -27.359375 C 15.222656 -27.660156 17.566406 -27.394531 19.640625 -26.5625 C 21.710938 -25.726562 23.40625 -24.429688 24.71875 -22.671875 C 26.03125 -20.910156 26.832031 -18.757812 27.125 -16.21875 C 27.40625 -13.726562 27.039062 -11.390625 26.03125 -9.203125 C 25.03125 -7.023438 23.539062 -5.207031 21.5625 -3.75 C 19.582031 -2.300781 17.285156 -1.425781 14.671875 -1.125 Z M 15.578125 -1.890625 C 17.035156 -2.054688 18.367188 -2.628906 19.578125 -3.609375 C 20.796875 -4.585938 21.722656 -5.9375 22.359375 -7.65625 C 23.003906 -9.375 23.191406 -11.421875 22.921875 -13.796875 C 22.710938 -15.554688 22.28125 -17.242188 21.625 -18.859375 C 20.976562 -20.484375 20.128906 -21.910156 19.078125 -23.140625 C 18.035156 -24.378906 16.832031 -25.304688 15.46875 -25.921875 C 14.101562 -26.546875 12.628906 -26.734375 11.046875 -26.484375 C 9.691406 -26.296875 8.4375 -25.707031 7.28125 -24.71875 C 6.125 -23.738281 5.242188 -22.394531 4.640625 -20.6875 C 4.046875 -18.988281 3.882812 -16.960938 4.15625 -14.609375 C 4.351562 -12.890625 4.769531 -11.234375 5.40625 -9.640625 C 6.039062 -8.054688 6.863281 -6.648438 7.875 -5.421875 C 8.894531 -4.203125 10.050781 -3.265625 11.34375 -2.609375 C 12.644531 -1.953125 14.054688 -1.710938 15.578125 -1.890625 Z M 15.578125 -1.890625 "/></g></g></g><g fill="#e4e2dd" fill-opacity="1"><g transform="translate(225.762607, 289.593438)"><g><path d="M 30.359375 -9.28125 C 30.484375 -9.320312 30.5625 -9.285156 30.59375 -9.171875 C 30.632812 -9.054688 30.59375 -8.976562 30.46875 -8.9375 C 29.1875 -8.550781 28.289062 -8.3125 27.78125 -8.21875 C 27.269531 -8.125 26.773438 -8.003906 26.296875 -7.859375 L 23.796875 -7.109375 C 23.222656 -7.222656 22.515625 -7.6875 21.671875 -8.5 C 20.835938 -9.3125 19.929688 -10.300781 18.953125 -11.46875 C 17.984375 -12.632812 16.992188 -13.78125 15.984375 -14.90625 C 15.003906 -16.03125 14.007812 -16.816406 13 -17.265625 C 12 -17.722656 11.0625 -17.820312 10.1875 -17.5625 C 9.550781 -17.375 8.898438 -17.054688 8.234375 -16.609375 C 7.566406 -16.171875 6.984375 -15.679688 6.484375 -15.140625 L 5.359375 -13.5 L 7.046875 -7.84375 C 7.421875 -6.59375 7.78125 -5.617188 8.125 -4.921875 C 8.476562 -4.234375 8.957031 -3.804688 9.5625 -3.640625 C 10.164062 -3.472656 11.046875 -3.546875 12.203125 -3.859375 C 12.359375 -3.898438 12.453125 -3.863281 12.484375 -3.75 C 12.523438 -3.632812 12.46875 -3.554688 12.3125 -3.515625 C 11.507812 -3.273438 10.878906 -3.101562 10.421875 -3 C 9.972656 -2.90625 9.609375 -2.820312 9.328125 -2.75 C 9.046875 -2.6875 8.734375 -2.601562 8.390625 -2.5 L 5.078125 -1.515625 C 4.753906 -1.421875 4.453125 -1.320312 4.171875 -1.21875 C 3.898438 -1.125 3.539062 -0.988281 3.09375 -0.8125 C 2.65625 -0.644531 2.023438 -0.4375 1.203125 -0.1875 C 1.066406 -0.144531 0.976562 -0.179688 0.9375 -0.296875 C 0.90625 -0.410156 0.957031 -0.488281 1.09375 -0.53125 C 2.289062 -0.925781 3.097656 -1.359375 3.515625 -1.828125 C 3.929688 -2.304688 4.09375 -2.925781 4 -3.6875 C 3.90625 -4.457031 3.671875 -5.46875 3.296875 -6.71875 L -3.828125 -30.578125 C -4.210938 -31.859375 -4.753906 -32.800781 -5.453125 -33.40625 C -6.160156 -34.019531 -7.242188 -34.050781 -8.703125 -33.5 C -8.804688 -33.46875 -8.875 -33.5 -8.90625 -33.59375 C -8.9375 -33.695312 -8.898438 -33.765625 -8.796875 -33.796875 C -8.210938 -34.179688 -7.519531 -34.660156 -6.71875 -35.234375 C -5.925781 -35.804688 -5.140625 -36.394531 -4.359375 -37 C -3.585938 -37.613281 -2.953125 -38.15625 -2.453125 -38.625 C -2.421875 -38.695312 -2.363281 -38.726562 -2.28125 -38.71875 C -2.207031 -38.707031 -2.15625 -38.648438 -2.125 -38.546875 L 5.125 -14.265625 L 11.9375 -23.96875 C 13.351562 -25.988281 13.851562 -27.476562 13.4375 -28.4375 C 13.03125 -29.394531 11.742188 -29.550781 9.578125 -28.90625 C 9.421875 -28.851562 9.320312 -28.878906 9.28125 -28.984375 C 9.25 -29.097656 9.3125 -29.179688 9.46875 -29.234375 C 11.15625 -29.734375 12.578125 -30.132812 13.734375 -30.4375 C 14.890625 -30.738281 15.800781 -30.988281 16.46875 -31.1875 L 16.5625 -31.21875 C 17.101562 -31.375 17.8125 -31.609375 18.6875 -31.921875 C 19.570312 -32.234375 20.679688 -32.585938 22.015625 -32.984375 C 22.171875 -33.023438 22.265625 -32.988281 22.296875 -32.875 C 22.335938 -32.769531 22.28125 -32.695312 22.125 -32.65625 C 20.394531 -32.132812 18.757812 -31.101562 17.21875 -29.5625 C 15.6875 -28.019531 14.226562 -26.25 12.84375 -24.25 L 8.171875 -17.515625 C 9.078125 -18.316406 10.0625 -18.875 11.125 -19.1875 C 12.269531 -19.53125 13.550781 -19.566406 14.96875 -19.296875 C 16.394531 -19.035156 17.726562 -18.21875 18.96875 -16.84375 L 21.453125 -14.078125 C 22.847656 -12.585938 24.015625 -11.441406 24.953125 -10.640625 C 25.890625 -9.835938 26.765625 -9.34375 27.578125 -9.15625 C 28.398438 -8.96875 29.328125 -9.007812 30.359375 -9.28125 Z M 30.359375 -9.28125 "/></g></g></g><g clip-path="url(#bc59478bc0)"><g transform="matrix(1, 0, 0, 1, 65, 180)"><g clip-path="url(#d7494db8e3)"><g clip-path="url(#2cf54c82d1)"><path fill="#e4e2dd" d="M 31.617188 5.597656 C 32.347656 32.304688 32.9375 32.894531 59.644531 33.625 C 32.9375 34.355469 32.347656 34.945312 31.617188 61.652344 C 30.886719 34.945312 30.296875 34.355469 3.589844 33.625 C 30.296875 32.894531 30.886719 32.304688 31.617188 5.597656 " fill-opacity="1" fill-rule="nonzero"/></g><g clip-path="url(#a21d0c6f89)"><path fill="#e4e2dd" d="M 56.785156 38.355469 C 56.996094 46.058594 57.167969 46.230469 64.867188 46.441406 C 57.167969 46.648438 56.996094 46.820312 56.785156 54.523438 C 56.574219 46.820312 56.40625 46.648438 48.703125 46.441406 C 56.40625 46.230469 56.574219 46.058594 56.785156 38.355469 " fill-opacity="1" fill-rule="nonzero"/></g><g clip-path="url(#5f56631894)"><path fill="#e4e2dd" d="M 12.398438 25.484375 C 12.078125 13.785156 11.820312 13.523438 0.117188 13.207031 C 11.820312 12.886719 12.078125 12.625 12.398438 0.925781 C 12.71875 12.625 12.976562 12.886719 24.675781 13.207031 C 12.976562 13.523438 12.71875 13.785156 12.398438 25.484375 " fill-opacity="1" fill-rule="nonzero"/></g></g></g></g><g clip-path="url(#ecb1b1726c)"><path fill="#e4e2dd" d="M 283.761719 185.597656 C 283.03125 212.304688 282.441406 212.894531 255.734375 213.625 C 282.441406 214.355469 283.03125 214.945312 283.761719 241.652344 C 284.492188 214.945312 285.082031 214.355469 311.789062 213.625 C 285.082031 212.894531 284.492188 212.304688 283.761719 185.597656 " fill-opacity="1" fill-rule="nonzero"/></g><g clip-path="url(#1d073458e6)"><path fill="#e4e2dd" d="M 258.59375 218.355469 C 258.382812 226.058594 258.210938 226.230469 250.507812 226.441406 C 258.210938 226.648438 258.382812 226.820312 258.59375 234.523438 C 258.800781 226.820312 258.972656 226.648438 266.675781 226.441406 C 258.972656 226.230469 258.800781 226.058594 258.59375 218.355469 " fill-opacity="1" fill-rule="nonzero"/></g><g clip-path="url(#6fd068e746)"><path fill="#e4e2dd" d="M 302.980469 205.484375 C 303.300781 193.785156 303.558594 193.523438 315.261719 193.207031 C 303.558594 192.886719 303.300781 192.625 302.980469 180.925781 C 302.660156 192.625 302.402344 192.886719 290.699219 193.207031 C 302.402344 193.523438 302.660156 193.785156 302.980469 205.484375 " fill-opacity="1" fill-rule="nonzero"/></g></svg>