<svg xmlns="http://www.w3.org/2000/svg" xmlns:xlink="http://www.w3.org/1999/xlink" width="699" zoomAndPan="magnify" viewBox="0 0 524.25 275.25" height="367" preserveAspectRatio="xMidYMid meet" version="1.0"><defs><g/><clipPath id="7fe73601c5"><path d="M 122.960938 69.371094 L 224.382812 69.371094 L 224.382812 134.109375 L 122.960938 134.109375 Z M 122.960938 69.371094 " clip-rule="nonzero"/></clipPath><clipPath id="97c07f5a1a"><path d="M 56.472656 76.800781 L 118.335938 76.800781 L 118.335938 135.0625 L 56.472656 135.0625 Z M 56.472656 76.800781 " clip-rule="nonzero"/></clipPath><clipPath id="e5ae9b4b72"><path d="M 3.695312 5.226562 L 57.59375 5.226562 L 57.59375 59.046875 L 3.695312 59.046875 Z M 3.695312 5.226562 " clip-rule="nonzero"/></clipPath><clipPath id="779098b226"><path d="M 47 36 L 62.335938 36 L 62.335938 53 L 47 53 Z M 47 36 " clip-rule="nonzero"/></clipPath><clipPath id="c2c3519cbc"><path d="M 0.710938 0.804688 L 24.148438 0.804688 L 24.148438 24.4375 L 0.710938 24.4375 Z M 0.710938 0.804688 " clip-rule="nonzero"/></clipPath><clipPath id="7933aeb9c3"><rect x="0" width="63" y="0" height="60"/></clipPath><clipPath id="7b74c2e0b3"><path d="M 239.25 81.226562 L 293.148438 81.226562 L 293.148438 135.046875 L 239.25 135.046875 Z M 239.25 81.226562 " clip-rule="nonzero"/></clipPath><clipPath id="67fd8d8d04"><path d="M 234.273438 112 L 250 112 L 250 129 L 234.273438 129 Z M 234.273438 112 " clip-rule="nonzero"/></clipPath><clipPath id="d1997b58ed"><path d="M 272.695312 76.804688 L 296.132812 76.804688 L 296.132812 100.4375 L 272.695312 100.4375 Z M 272.695312 76.804688 " clip-rule="nonzero"/></clipPath><clipPath id="e63f0c5696"><rect x="0" width="362" y="0" height="136"/></clipPath></defs><g transform="matrix(1, 0, 0, 1, 81, 80)"><g clip-path="url(#e63f0c5696)"><g clip-path="url(#7fe73601c5)"><path fill="#49423c" d="M 223.875 77.625 L 219.894531 77.625 L 219.894531 74.027344 C 219.894531 73.746094 219.667969 73.519531 219.386719 73.519531 L 214.390625 73.519531 L 214.390625 69.886719 C 214.390625 69.605469 214.164062 69.378906 213.882812 69.378906 L 192.632812 69.378906 C 181.152344 69.378906 175.269531 74.25 173.113281 76.582031 C 170.957031 74.25 165.078125 69.378906 153.59375 69.378906 L 132.347656 69.378906 C 132.066406 69.378906 131.839844 69.605469 131.839844 69.886719 L 131.839844 73.519531 L 127.957031 73.519531 C 127.675781 73.519531 127.449219 73.746094 127.449219 74.027344 L 127.449219 77.625 L 123.46875 77.625 C 123.1875 77.625 122.960938 77.851562 122.960938 78.132812 L 122.960938 132.972656 C 122.960938 133.25 123.183594 133.480469 123.460938 133.480469 L 172.4375 134.09375 C 172.476562 134.105469 172.515625 134.109375 172.554688 134.109375 C 172.59375 134.109375 172.628906 134.105469 172.664062 134.097656 L 173.664062 134.109375 C 173.667969 134.109375 173.667969 134.109375 173.671875 134.109375 C 173.671875 134.109375 173.675781 134.109375 173.675781 134.109375 L 223.878906 133.484375 C 224.15625 133.480469 224.378906 133.253906 224.378906 132.976562 L 224.378906 78.136719 C 224.382812 77.855469 224.15625 77.625 223.875 77.625 Z M 123.976562 78.644531 L 127.449219 78.644531 L 127.449219 129.5625 C 127.449219 129.839844 127.675781 130.070312 127.957031 130.070312 L 150.816406 130.070312 C 157.800781 130.070312 165.5625 131.855469 169.960938 133.042969 L 123.976562 132.46875 Z M 172.4375 77.375 C 172.257812 77.601562 172.160156 77.75 172.132812 77.789062 C 172.078125 77.871094 172.046875 77.96875 172.046875 78.066406 L 172.046875 131.457031 C 169.035156 129 162.871094 124.910156 155.203125 124.910156 L 132.851562 124.910156 L 132.851562 70.398438 L 153.59375 70.398438 C 164.734375 70.398438 170.460938 75.246094 172.4375 77.375 Z M 213.375 70.398438 L 213.375 124.910156 L 191.023438 124.910156 C 182.226562 124.910156 175.410156 130.289062 173.0625 132.414062 L 173.0625 78.234375 C 173.800781 77.242188 179.398438 70.398438 192.632812 70.398438 Z M 218.878906 129.050781 L 196.527344 129.050781 C 187.351562 129.050781 176.886719 132.074219 174.179688 132.90625 L 174.179688 132.796875 C 176.773438 130.574219 183.148438 125.925781 191.023438 125.925781 L 213.882812 125.925781 C 214.160156 125.925781 214.386719 125.699219 214.386719 125.417969 L 214.386719 74.539062 L 218.878906 74.539062 Z M 131.839844 125.421875 C 131.839844 125.699219 132.066406 125.929688 132.347656 125.929688 L 155.203125 125.929688 C 162.679688 125.929688 168.816406 130.128906 171.636719 132.453125 C 167.613281 131.300781 158.734375 129.050781 150.8125 129.050781 L 128.464844 129.050781 L 128.464844 74.539062 L 131.835938 74.539062 L 131.835938 125.421875 Z M 223.367188 132.46875 L 177.382812 133.042969 C 181.777344 131.855469 189.539062 130.070312 196.527344 130.070312 L 219.386719 130.070312 C 219.667969 130.070312 219.894531 129.839844 219.894531 129.5625 L 219.894531 78.644531 L 223.367188 78.644531 Z M 223.367188 132.46875 " fill-opacity="1" fill-rule="nonzero"/></g><g fill="#1e1e1e" fill-opacity="1"><g transform="translate(23.939852, 103.670846)"><g><path d="M 11.671875 -10.375 C 11.242188 -10 10.835938 -9.628906 10.453125 -9.265625 C 10.078125 -8.910156 9.585938 -8.441406 8.984375 -7.859375 C 8.378906 -7.273438 7.519531 -6.488281 6.40625 -5.5 C 6.21875 -5.332031 6.085938 -5.300781 6.015625 -5.40625 C 5.941406 -5.507812 5.988281 -5.632812 6.15625 -5.78125 C 7.175781 -6.6875 7.957031 -7.484375 8.5 -8.171875 C 9.050781 -8.859375 9.351562 -9.535156 9.40625 -10.203125 C 9.457031 -10.867188 9.21875 -11.628906 8.6875 -12.484375 C 8.164062 -13.335938 7.34375 -14.394531 6.21875 -15.65625 L -10.703125 -34.703125 L -12.53125 -33.078125 C -13.84375 -31.910156 -14.757812 -30.566406 -15.28125 -29.046875 C -15.800781 -27.535156 -15.863281 -25.722656 -15.46875 -23.609375 C -15.082031 -21.492188 -14.207031 -18.925781 -12.84375 -15.90625 C -12.832031 -15.832031 -12.859375 -15.765625 -12.921875 -15.703125 C -12.992188 -15.640625 -13.066406 -15.671875 -13.140625 -15.796875 L -20.765625 -28.90625 C -20.816406 -29.019531 -20.753906 -29.070312 -20.578125 -29.0625 C -19.660156 -28.800781 -18.742188 -28.9375 -17.828125 -29.46875 C -16.910156 -30 -15.726562 -30.910156 -14.28125 -32.203125 L -4.734375 -40.6875 C -3.347656 -41.914062 -2.3125 -42.972656 -1.625 -43.859375 C -0.9375 -44.753906 -0.679688 -45.664062 -0.859375 -46.59375 C -0.847656 -46.8125 -0.78125 -46.875 -0.65625 -46.78125 L 11.484375 -37.671875 C 11.597656 -37.585938 11.625 -37.519531 11.5625 -37.46875 C 11.507812 -37.414062 11.4375 -37.394531 11.34375 -37.40625 C 8.519531 -39.132812 6.070312 -40.304688 4 -40.921875 C 1.925781 -41.546875 0.113281 -41.691406 -1.4375 -41.359375 C -3 -41.023438 -4.453125 -40.265625 -5.796875 -39.078125 L -7.578125 -37.484375 L 9.34375 -18.4375 C 10.46875 -17.175781 11.421875 -16.234375 12.203125 -15.609375 C 12.992188 -14.984375 13.71875 -14.65625 14.375 -14.625 C 15.039062 -14.59375 15.75 -14.804688 16.5 -15.265625 C 17.25 -15.734375 18.132812 -16.425781 19.15625 -17.34375 C 19.332031 -17.5 19.46875 -17.53125 19.5625 -17.4375 C 19.65625 -17.351562 19.601562 -17.226562 19.40625 -17.0625 C 18.289062 -16.0625 17.410156 -15.296875 16.765625 -14.765625 C 16.117188 -14.242188 15.597656 -13.816406 15.203125 -13.484375 C 14.816406 -13.160156 14.394531 -12.796875 13.9375 -12.390625 Z M 11.671875 -10.375 "/></g></g></g><g fill="#1e1e1e" fill-opacity="1"><g transform="translate(48.36719, 81.952016)"><g><path d="M 4.234375 -2.796875 C 3.972656 -2.628906 3.722656 -2.457031 3.484375 -2.28125 C 3.253906 -2.101562 2.960938 -1.875 2.609375 -1.59375 C 2.253906 -1.320312 1.734375 -0.960938 1.046875 -0.515625 C 0.929688 -0.441406 0.84375 -0.453125 0.78125 -0.546875 C 0.71875 -0.640625 0.742188 -0.722656 0.859375 -0.796875 C 1.859375 -1.492188 2.476562 -2.113281 2.71875 -2.65625 C 2.96875 -3.207031 2.941406 -3.820312 2.640625 -4.5 C 2.347656 -5.1875 1.859375 -6.050781 1.171875 -7.09375 L -11.984375 -26.96875 C -12.691406 -28.03125 -13.453125 -28.742188 -14.265625 -29.109375 C -15.078125 -29.472656 -16.082031 -29.203125 -17.28125 -28.296875 C -17.375 -28.234375 -17.445312 -28.238281 -17.5 -28.3125 C -17.550781 -28.394531 -17.53125 -28.46875 -17.4375 -28.53125 C -17.019531 -29.039062 -16.519531 -29.664062 -15.9375 -30.40625 C -15.363281 -31.15625 -14.804688 -31.914062 -14.265625 -32.6875 C -13.722656 -33.46875 -13.289062 -34.144531 -12.96875 -34.71875 C -12.882812 -34.914062 -12.78125 -34.921875 -12.65625 -34.734375 L -5.9375 -24.5625 L -2.9375 -19.84375 L -2.859375 -19.890625 C -2.804688 -21.378906 -2.550781 -22.851562 -2.09375 -24.3125 C -1.644531 -25.78125 -1.035156 -27.125 -0.265625 -28.34375 C 0.492188 -29.5625 1.367188 -30.5 2.359375 -31.15625 C 4.597656 -32.625 6.660156 -32.945312 8.546875 -32.125 C 10.429688 -31.300781 12.382812 -29.359375 14.40625 -26.296875 L 19.21875 -19.015625 C 19.90625 -17.972656 20.5 -17.175781 21 -16.625 C 21.507812 -16.070312 22.070312 -15.804688 22.6875 -15.828125 C 23.300781 -15.859375 24.125 -16.191406 25.15625 -16.828125 C 25.28125 -16.910156 25.375 -16.90625 25.4375 -16.8125 C 25.5 -16.71875 25.46875 -16.628906 25.34375 -16.546875 C 24.644531 -16.085938 24.09375 -15.742188 23.6875 -15.515625 C 23.289062 -15.285156 22.972656 -15.101562 22.734375 -14.96875 C 22.492188 -14.832031 22.226562 -14.671875 21.9375 -14.484375 L 19.171875 -12.65625 C 18.898438 -12.476562 18.65625 -12.304688 18.4375 -12.140625 C 18.226562 -11.972656 17.945312 -11.753906 17.59375 -11.484375 C 17.25 -11.222656 16.75 -10.875 16.09375 -10.4375 C 15.976562 -10.363281 15.890625 -10.375 15.828125 -10.46875 C 15.765625 -10.5625 15.789062 -10.644531 15.90625 -10.71875 C 16.851562 -11.382812 17.441406 -11.984375 17.671875 -12.515625 C 17.910156 -13.054688 17.875 -13.664062 17.5625 -14.34375 C 17.25 -15.019531 16.75 -15.878906 16.0625 -16.921875 L 10.96875 -24.640625 C 9.726562 -26.515625 8.585938 -27.773438 7.546875 -28.421875 C 6.503906 -29.078125 5.53125 -29.332031 4.625 -29.1875 C 3.726562 -29.050781 2.851562 -28.703125 2 -28.140625 C 0.664062 -27.265625 -0.351562 -26.125 -1.0625 -24.71875 C -1.769531 -23.320312 -2.257812 -21.550781 -2.53125 -19.40625 L 4.25 -9.125 C 4.9375 -8.082031 5.53125 -7.285156 6.03125 -6.734375 C 6.539062 -6.191406 7.085938 -5.921875 7.671875 -5.921875 C 8.265625 -5.929688 9.046875 -6.234375 10.015625 -6.828125 C 10.148438 -6.921875 10.25 -6.921875 10.3125 -6.828125 C 10.375 -6.734375 10.335938 -6.640625 10.203125 -6.546875 C 9.210938 -5.898438 8.53125 -5.484375 8.15625 -5.296875 C 7.789062 -5.109375 7.40625 -4.882812 7 -4.625 Z M 4.234375 -2.796875 "/></g></g></g><g fill="#1e1e1e" fill-opacity="1"><g transform="translate(73.158441, 65.628555)"><g><path d="M 18.859375 -21.46875 C 18.910156 -21.632812 19.003906 -21.722656 19.140625 -21.734375 C 19.273438 -21.753906 19.351562 -21.675781 19.375 -21.5 C 19.457031 -19.5 19.320312 -17.445312 18.96875 -15.34375 C 18.613281 -13.238281 17.90625 -11.304688 16.84375 -9.546875 C 15.78125 -7.796875 14.210938 -6.414062 12.140625 -5.40625 C 10.015625 -4.363281 7.90625 -3.925781 5.8125 -4.09375 C 3.71875 -4.257812 1.816406 -4.957031 0.109375 -6.1875 C -1.597656 -7.425781 -2.960938 -9.09375 -3.984375 -11.1875 C -4.773438 -12.789062 -5.191406 -14.457031 -5.234375 -16.1875 C -5.273438 -17.914062 -4.988281 -19.585938 -4.375 -21.203125 C -3.769531 -22.816406 -2.894531 -24.269531 -1.75 -25.5625 C -0.601562 -26.851562 0.757812 -27.890625 2.34375 -28.671875 C 4.007812 -29.484375 5.65625 -29.863281 7.28125 -29.8125 C 8.90625 -29.757812 10.367188 -29.367188 11.671875 -28.640625 C 12.972656 -27.921875 13.941406 -26.914062 14.578125 -25.625 C 14.785156 -25.1875 14.953125 -24.703125 15.078125 -24.171875 L -2.015625 -15.78125 C -1.992188 -15.644531 -1.953125 -15.519531 -1.890625 -15.40625 C -1.835938 -15.289062 -1.773438 -15.160156 -1.703125 -15.015625 C -0.773438 -13.128906 0.425781 -11.523438 1.90625 -10.203125 C 3.394531 -8.890625 5.066406 -8.0625 6.921875 -7.71875 C 8.773438 -7.382812 10.738281 -7.722656 12.8125 -8.734375 C 15.195312 -9.898438 16.851562 -11.597656 17.78125 -13.828125 C 18.71875 -16.066406 19.078125 -18.613281 18.859375 -21.46875 Z M 2.0625 -27.828125 C 1.03125 -27.328125 0.0625 -26.515625 -0.84375 -25.390625 C -1.757812 -24.265625 -2.375 -22.914062 -2.6875 -21.34375 C -3.007812 -19.78125 -2.851562 -18.085938 -2.21875 -16.265625 L 9.375 -21.9375 C 10.175781 -22.332031 10.644531 -22.773438 10.78125 -23.265625 C 10.914062 -23.765625 10.828125 -24.332031 10.515625 -24.96875 C 9.765625 -26.476562 8.675781 -27.582031 7.25 -28.28125 C 5.832031 -28.976562 4.101562 -28.828125 2.0625 -27.828125 Z M 2.0625 -27.828125 "/></g></g></g><g fill="#1e1e1e" fill-opacity="1"><g transform="translate(96.81284, 54.356316)"><g/></g></g><g fill="#1e1e1e" fill-opacity="1"><g transform="translate(106.687102, 50.022106)"><g><path d="M 15.71875 -3.9375 C 14.644531 -3.632812 13.617188 -3.507812 12.640625 -3.5625 C 11.660156 -3.625 10.753906 -3.738281 9.921875 -3.90625 C 9.097656 -4.082031 8.367188 -4.25 7.734375 -4.40625 C 7.109375 -4.5625 6.609375 -4.585938 6.234375 -4.484375 C 5.742188 -4.347656 5.257812 -3.914062 4.78125 -3.1875 C 4.3125 -2.46875 3.992188 -1.769531 3.828125 -1.09375 C 3.816406 -1.019531 3.78125 -0.972656 3.71875 -0.953125 C 3.65625 -0.941406 3.613281 -0.96875 3.59375 -1.03125 C 3.46875 -2.050781 3.316406 -3.015625 3.140625 -3.921875 C 2.960938 -4.835938 2.75 -5.742188 2.5 -6.640625 L -3.90625 -29.015625 C -4.25 -30.234375 -4.757812 -31.144531 -5.4375 -31.75 C -6.113281 -32.363281 -7.148438 -32.398438 -8.546875 -31.859375 C -8.648438 -31.878906 -8.710938 -31.925781 -8.734375 -32 C -8.753906 -32.070312 -8.71875 -32.117188 -8.625 -32.140625 C -8.070312 -32.492188 -7.40625 -32.941406 -6.625 -33.484375 C -5.851562 -34.023438 -5.09375 -34.59375 -4.34375 -35.1875 C -3.601562 -35.78125 -3 -36.296875 -2.53125 -36.734375 C -2.476562 -36.816406 -2.414062 -36.84375 -2.34375 -36.8125 C -2.28125 -36.78125 -2.234375 -36.722656 -2.203125 -36.640625 L 1.171875 -24.828125 L 2.59375 -19.53125 L 2.671875 -19.5625 C 3.160156 -20.894531 3.757812 -22.1875 4.46875 -23.4375 C 5.175781 -24.695312 6.070312 -25.804688 7.15625 -26.765625 C 8.238281 -27.722656 9.582031 -28.429688 11.1875 -28.890625 C 12.9375 -29.390625 14.664062 -29.429688 16.375 -29.015625 C 18.09375 -28.609375 19.625 -27.734375 20.96875 -26.390625 C 22.320312 -25.054688 23.328125 -23.234375 23.984375 -20.921875 C 24.523438 -19.046875 24.679688 -17.191406 24.453125 -15.359375 C 24.222656 -13.535156 23.691406 -11.832031 22.859375 -10.25 C 22.035156 -8.664062 21.007812 -7.320312 19.78125 -6.21875 C 18.550781 -5.125 17.195312 -4.363281 15.71875 -3.9375 Z M 15.53125 -4.4375 C 17.070312 -4.882812 18.335938 -5.644531 19.328125 -6.71875 C 20.316406 -7.789062 20.925781 -9.253906 21.15625 -11.109375 C 21.394531 -12.960938 21.128906 -15.238281 20.359375 -17.9375 C 19.804688 -19.875 19.03125 -21.566406 18.03125 -23.015625 C 17.039062 -24.460938 15.816406 -25.492188 14.359375 -26.109375 C 12.910156 -26.722656 11.195312 -26.75 9.21875 -26.1875 C 7.875 -25.789062 6.6875 -24.9375 5.65625 -23.625 C 4.632812 -22.320312 3.691406 -20.785156 2.828125 -19.015625 L 6.234375 -7.109375 C 7.015625 -6.503906 7.9375 -5.9375 9 -5.40625 C 10.0625 -4.875 11.171875 -4.507812 12.328125 -4.3125 C 13.484375 -4.113281 14.550781 -4.15625 15.53125 -4.4375 Z M 15.53125 -4.4375 "/></g></g></g><g fill="#1e1e1e" fill-opacity="1"><g transform="translate(134.230835, 42.087532)"><g><path d="M 14.015625 -1.5625 C 11.492188 -1.1875 9.207031 -1.351562 7.15625 -2.0625 C 5.101562 -2.78125 3.421875 -3.957031 2.109375 -5.59375 C 0.796875 -7.238281 -0.0351562 -9.269531 -0.390625 -11.6875 C -0.753906 -14.113281 -0.492188 -16.382812 0.390625 -18.5 C 1.285156 -20.625 2.664062 -22.414062 4.53125 -23.875 C 6.394531 -25.34375 8.609375 -26.269531 11.171875 -26.65625 C 13.671875 -27.03125 15.925781 -26.847656 17.9375 -26.109375 C 19.957031 -25.378906 21.625 -24.191406 22.9375 -22.546875 C 24.25 -20.910156 25.085938 -18.875 25.453125 -16.4375 C 25.816406 -14.070312 25.550781 -11.820312 24.65625 -9.6875 C 23.769531 -7.5625 22.398438 -5.769531 20.546875 -4.3125 C 18.691406 -2.851562 16.515625 -1.9375 14.015625 -1.5625 Z M 14.875 -2.328125 C 16.269531 -2.535156 17.53125 -3.128906 18.65625 -4.109375 C 19.78125 -5.085938 20.625 -6.410156 21.1875 -8.078125 C 21.75 -9.742188 21.859375 -11.710938 21.515625 -13.984375 C 21.265625 -15.671875 20.796875 -17.273438 20.109375 -18.796875 C 19.429688 -20.328125 18.566406 -21.671875 17.515625 -22.828125 C 16.472656 -23.984375 15.289062 -24.832031 13.96875 -25.375 C 12.644531 -25.925781 11.222656 -26.054688 9.703125 -25.765625 C 8.410156 -25.535156 7.222656 -24.925781 6.140625 -23.9375 C 5.054688 -22.945312 4.257812 -21.628906 3.75 -19.984375 C 3.25 -18.335938 3.164062 -16.390625 3.5 -14.140625 C 3.75 -12.503906 4.203125 -10.9375 4.859375 -9.4375 C 5.523438 -7.9375 6.359375 -6.613281 7.359375 -5.46875 C 8.367188 -4.320312 9.507812 -3.457031 10.78125 -2.875 C 12.050781 -2.289062 13.414062 -2.109375 14.875 -2.328125 Z M 14.875 -2.328125 "/></g></g></g><g fill="#1e1e1e" fill-opacity="1"><g transform="translate(161.453772, 37.908189)"><g><path d="M 14.109375 0.21875 C 11.554688 0.269531 9.304688 -0.179688 7.359375 -1.140625 C 5.410156 -2.109375 3.890625 -3.488281 2.796875 -5.28125 C 1.710938 -7.082031 1.144531 -9.203125 1.09375 -11.640625 C 1.03125 -14.097656 1.578125 -16.320312 2.734375 -18.3125 C 3.890625 -20.300781 5.484375 -21.90625 7.515625 -23.125 C 9.554688 -24.34375 11.875 -24.976562 14.46875 -25.03125 C 16.988281 -25.09375 19.203125 -24.628906 21.109375 -23.640625 C 23.015625 -22.660156 24.515625 -21.269531 25.609375 -19.46875 C 26.710938 -17.664062 27.289062 -15.535156 27.34375 -13.078125 C 27.394531 -10.679688 26.84375 -8.484375 25.6875 -6.484375 C 24.539062 -4.492188 22.957031 -2.890625 20.9375 -1.671875 C 18.914062 -0.460938 16.640625 0.164062 14.109375 0.21875 Z M 15.0625 -0.421875 C 16.46875 -0.453125 17.789062 -0.882812 19.03125 -1.71875 C 20.269531 -2.550781 21.273438 -3.753906 22.046875 -5.328125 C 22.816406 -6.910156 23.175781 -8.851562 23.125 -11.15625 C 23.082031 -12.851562 22.816406 -14.503906 22.328125 -16.109375 C 21.847656 -17.710938 21.160156 -19.15625 20.265625 -20.4375 C 19.378906 -21.71875 18.3125 -22.707031 17.0625 -23.40625 C 15.820312 -24.113281 14.429688 -24.421875 12.890625 -24.328125 C 11.578125 -24.265625 10.320312 -23.8125 9.125 -22.96875 C 7.925781 -22.125 6.96875 -20.914062 6.25 -19.34375 C 5.539062 -17.78125 5.210938 -15.863281 5.265625 -13.59375 C 5.296875 -11.9375 5.546875 -10.320312 6.015625 -8.75 C 6.484375 -7.175781 7.144531 -5.753906 8 -4.484375 C 8.863281 -3.222656 9.882812 -2.222656 11.0625 -1.484375 C 12.25 -0.742188 13.582031 -0.390625 15.0625 -0.421875 Z M 15.0625 -0.421875 "/></g></g></g><g fill="#1e1e1e" fill-opacity="1"><g transform="translate(188.954629, 37.155602)"><g><path d="M 30.296875 3.09375 C 30.421875 3.101562 30.476562 3.160156 30.46875 3.265625 C 30.457031 3.378906 30.390625 3.429688 30.265625 3.421875 C 28.984375 3.285156 28.097656 3.164062 27.609375 3.0625 C 27.128906 2.96875 26.648438 2.894531 26.171875 2.84375 L 23.6875 2.5625 C 23.207031 2.25 22.75 1.578125 22.3125 0.546875 C 21.882812 -0.472656 21.457031 -1.679688 21.03125 -3.078125 C 20.601562 -4.472656 20.15625 -5.851562 19.6875 -7.21875 C 19.226562 -8.59375 18.632812 -9.660156 17.90625 -10.421875 C 17.1875 -11.191406 16.398438 -11.625 15.546875 -11.71875 C 14.910156 -11.789062 14.210938 -11.753906 13.453125 -11.609375 C 12.703125 -11.460938 12.007812 -11.242188 11.375 -10.953125 L 9.75 -9.953125 L 9.140625 -4.328125 C 9.003906 -3.085938 8.960938 -2.09375 9.015625 -1.34375 C 9.066406 -0.601562 9.328125 -0.046875 9.796875 0.328125 C 10.273438 0.710938 11.082031 0.984375 12.21875 1.140625 C 12.375 1.148438 12.445312 1.207031 12.4375 1.3125 C 12.425781 1.425781 12.34375 1.476562 12.1875 1.46875 C 11.394531 1.375 10.773438 1.285156 10.328125 1.203125 C 9.890625 1.128906 9.535156 1.070312 9.265625 1.03125 C 9.003906 0.988281 8.695312 0.945312 8.34375 0.90625 L 5.046875 0.546875 C 4.734375 0.515625 4.429688 0.488281 4.140625 0.46875 C 3.859375 0.457031 3.488281 0.441406 3.03125 0.421875 C 2.582031 0.398438 1.953125 0.347656 1.140625 0.265625 C 1.003906 0.253906 0.941406 0.191406 0.953125 0.078125 C 0.960938 -0.0234375 1.035156 -0.0703125 1.171875 -0.0625 C 2.378906 0.03125 3.25 -0.0507812 3.78125 -0.3125 C 4.320312 -0.582031 4.695312 -1.070312 4.90625 -1.78125 C 5.113281 -2.5 5.285156 -3.476562 5.421875 -4.71875 L 8 -28.453125 C 8.132812 -29.722656 8.003906 -30.757812 7.609375 -31.5625 C 7.222656 -32.363281 6.28125 -32.800781 4.78125 -32.875 C 4.6875 -32.882812 4.644531 -32.9375 4.65625 -33.03125 C 4.664062 -33.125 4.71875 -33.164062 4.8125 -33.15625 C 5.457031 -33.269531 6.238281 -33.429688 7.15625 -33.640625 C 8.082031 -33.847656 9 -34.078125 9.90625 -34.328125 C 10.820312 -34.578125 11.582031 -34.816406 12.1875 -35.046875 C 12.257812 -35.097656 12.320312 -35.109375 12.375 -35.078125 C 12.4375 -35.046875 12.460938 -34.984375 12.453125 -34.890625 L 9.84375 -10.71875 L 19.453125 -16.75 C 21.460938 -18.007812 22.46875 -19.132812 22.46875 -20.125 C 22.46875 -21.125 21.382812 -21.742188 19.21875 -21.984375 C 19.0625 -21.992188 18.988281 -22.054688 19 -22.171875 C 19.007812 -22.285156 19.09375 -22.335938 19.25 -22.328125 C 20.9375 -22.140625 22.34375 -21.960938 23.46875 -21.796875 C 24.59375 -21.628906 25.484375 -21.507812 26.140625 -21.4375 L 26.234375 -21.421875 C 26.773438 -21.359375 27.492188 -21.300781 28.390625 -21.25 C 29.285156 -21.207031 30.398438 -21.113281 31.734375 -20.96875 C 31.898438 -20.945312 31.976562 -20.878906 31.96875 -20.765625 C 31.957031 -20.648438 31.867188 -20.601562 31.703125 -20.625 C 29.984375 -20.8125 28.15625 -20.507812 26.21875 -19.71875 C 24.289062 -18.9375 22.34375 -17.914062 20.375 -16.65625 L 13.75 -12.453125 C 14.851562 -12.816406 15.925781 -12.941406 16.96875 -12.828125 C 18.125 -12.703125 19.273438 -12.253906 20.421875 -11.484375 C 21.566406 -10.710938 22.441406 -9.492188 23.046875 -7.828125 L 24.21875 -4.453125 C 24.882812 -2.609375 25.484375 -1.160156 26.015625 -0.109375 C 26.546875 0.941406 27.140625 1.703125 27.796875 2.171875 C 28.453125 2.640625 29.285156 2.945312 30.296875 3.09375 Z M 30.296875 3.09375 "/></g></g></g><g fill="#1e1e1e" fill-opacity="1"><g transform="translate(218.119677, 40.701237)"><g/></g></g><g fill="#1e1e1e" fill-opacity="1"><g transform="translate(228.755282, 42.347859)"><g><path d="M 4.90625 1.484375 C 4.570312 1.390625 4.265625 1.304688 3.984375 1.234375 C 3.703125 1.160156 3.335938 1.070312 2.890625 0.96875 C 2.453125 0.875 1.84375 0.707031 1.0625 0.46875 C 0.925781 0.4375 0.875 0.367188 0.90625 0.265625 C 0.9375 0.160156 1.019531 0.125 1.15625 0.15625 C 2.320312 0.476562 3.195312 0.554688 3.78125 0.390625 C 4.363281 0.234375 4.820312 -0.175781 5.15625 -0.84375 C 5.5 -1.507812 5.851562 -2.4375 6.21875 -3.625 L 9.359375 -14 C 9.867188 -15.644531 10.109375 -17.039062 10.078125 -18.1875 C 10.054688 -19.332031 9.367188 -20.195312 8.015625 -20.78125 C 7.960938 -20.851562 7.945312 -20.921875 7.96875 -20.984375 C 7.988281 -21.046875 8.035156 -21.082031 8.109375 -21.09375 C 9.234375 -20.945312 10.285156 -20.945312 11.265625 -21.09375 C 12.242188 -21.25 13.066406 -21.4375 13.734375 -21.65625 C 13.859375 -21.707031 13.945312 -21.675781 14 -21.5625 C 14.28125 -20.738281 14.34375 -19.722656 14.1875 -18.515625 C 14.03125 -17.316406 13.773438 -16.097656 13.421875 -14.859375 L 13.46875 -14.859375 C 14.695312 -15.796875 16.023438 -16.5625 17.453125 -17.15625 C 18.890625 -17.757812 20.316406 -18.144531 21.734375 -18.3125 C 23.160156 -18.488281 24.441406 -18.40625 25.578125 -18.0625 C 28.234375 -17.25 29.816406 -15.867188 30.328125 -13.921875 C 30.847656 -11.972656 30.601562 -9.332031 29.59375 -6 L 26.953125 2.671875 C 26.585938 3.859375 26.351562 4.816406 26.25 5.546875 C 26.144531 6.285156 26.296875 6.882812 26.703125 7.34375 C 27.109375 7.8125 27.890625 8.238281 29.046875 8.625 C 29.203125 8.675781 29.265625 8.753906 29.234375 8.859375 C 29.203125 8.960938 29.109375 8.988281 28.953125 8.9375 C 28.160156 8.695312 27.554688 8.492188 27.140625 8.328125 C 26.722656 8.171875 26.378906 8.039062 26.109375 7.9375 C 25.835938 7.84375 25.53125 7.742188 25.1875 7.640625 L 22.03125 6.6875 C 21.71875 6.59375 21.425781 6.515625 21.15625 6.453125 C 20.894531 6.390625 20.550781 6.3125 20.125 6.21875 C 19.707031 6.125 19.117188 5.957031 18.359375 5.71875 C 18.222656 5.6875 18.171875 5.617188 18.203125 5.515625 C 18.234375 5.410156 18.316406 5.375 18.453125 5.40625 C 19.554688 5.707031 20.390625 5.773438 20.953125 5.609375 C 21.523438 5.441406 21.972656 5.019531 22.296875 4.34375 C 22.617188 3.675781 22.960938 2.75 23.328125 1.5625 L 25.859375 -6.78125 C 26.515625 -8.957031 26.804688 -10.691406 26.734375 -11.984375 C 26.660156 -13.273438 26.296875 -14.25 25.640625 -14.90625 C 24.992188 -15.570312 24.132812 -16.066406 23.0625 -16.390625 C 21.6875 -16.804688 20.21875 -16.882812 18.65625 -16.625 C 17.09375 -16.375 15.328125 -15.609375 13.359375 -14.328125 L 9.78125 -2.546875 C 9.414062 -1.359375 9.179688 -0.394531 9.078125 0.34375 C 8.972656 1.082031 9.117188 1.679688 9.515625 2.140625 C 9.910156 2.597656 10.65625 3.007812 11.75 3.375 C 11.90625 3.425781 11.96875 3.503906 11.9375 3.609375 C 11.90625 3.710938 11.8125 3.738281 11.65625 3.6875 C 10.519531 3.34375 9.753906 3.082031 9.359375 2.90625 C 8.960938 2.738281 8.535156 2.585938 8.078125 2.453125 Z M 4.90625 1.484375 "/></g></g></g><g fill="#1e1e1e" fill-opacity="1"><g transform="translate(257.17486, 50.946368)"><g><path d="M 12.609375 6.3125 C 10.285156 5.257812 8.457031 3.875 7.125 2.15625 C 5.789062 0.4375 5.019531 -1.460938 4.8125 -3.546875 C 4.613281 -5.628906 5.015625 -7.78125 6.015625 -10 C 7.035156 -12.238281 8.5 -14.003906 10.40625 -15.296875 C 12.3125 -16.597656 14.441406 -17.351562 16.796875 -17.5625 C 19.160156 -17.78125 21.523438 -17.351562 23.890625 -16.28125 C 26.179688 -15.226562 27.972656 -13.847656 29.265625 -12.140625 C 30.554688 -10.429688 31.304688 -8.523438 31.515625 -6.421875 C 31.734375 -4.328125 31.332031 -2.164062 30.3125 0.0625 C 29.320312 2.25 27.875 3.988281 25.96875 5.28125 C 24.0625 6.582031 21.929688 7.34375 19.578125 7.5625 C 17.234375 7.78125 14.910156 7.363281 12.609375 6.3125 Z M 13.75 6.15625 C 15.03125 6.738281 16.410156 6.921875 17.890625 6.703125 C 19.367188 6.492188 20.796875 5.84375 22.171875 4.75 C 23.546875 3.65625 24.710938 2.0625 25.671875 -0.03125 C 26.367188 -1.570312 26.847656 -3.171875 27.109375 -4.828125 C 27.367188 -6.484375 27.375 -8.078125 27.125 -9.609375 C 26.875 -11.148438 26.34375 -12.507812 25.53125 -13.6875 C 24.71875 -14.875 23.59375 -15.753906 22.15625 -16.328125 C 20.945312 -16.847656 19.617188 -16.984375 18.171875 -16.734375 C 16.734375 -16.492188 15.351562 -15.820312 14.03125 -14.71875 C 12.707031 -13.613281 11.570312 -12.03125 10.625 -9.96875 C 9.945312 -8.457031 9.476562 -6.890625 9.21875 -5.265625 C 8.957031 -3.640625 8.9375 -2.070312 9.15625 -0.5625 C 9.375 0.9375 9.851562 2.273438 10.59375 3.453125 C 11.34375 4.640625 12.394531 5.539062 13.75 6.15625 Z M 13.75 6.15625 "/></g></g></g><g fill="#1e1e1e" fill-opacity="1"><g transform="translate(282.288272, 62.25445)"><g><path d="M 11.703125 7.859375 C 9.535156 6.515625 7.898438 4.90625 6.796875 3.03125 C 5.691406 1.164062 5.164062 -0.8125 5.21875 -2.90625 C 5.28125 -5.007812 5.953125 -7.097656 7.234375 -9.171875 C 8.523438 -11.265625 10.195312 -12.832031 12.25 -13.875 C 14.3125 -14.914062 16.523438 -15.390625 18.890625 -15.296875 C 21.265625 -15.210938 23.554688 -14.488281 25.765625 -13.125 C 27.910156 -11.800781 29.515625 -10.207031 30.578125 -8.34375 C 31.640625 -6.488281 32.140625 -4.503906 32.078125 -2.390625 C 32.015625 -0.285156 31.335938 1.8125 30.046875 3.90625 C 28.785156 5.945312 27.128906 7.488281 25.078125 8.53125 C 23.035156 9.570312 20.832031 10.050781 18.46875 9.96875 C 16.113281 9.894531 13.859375 9.191406 11.703125 7.859375 Z M 12.859375 7.84375 C 14.054688 8.570312 15.398438 8.925781 16.890625 8.90625 C 18.390625 8.894531 19.890625 8.4375 21.390625 7.53125 C 22.898438 6.625 24.257812 5.191406 25.46875 3.234375 C 26.351562 1.785156 27.03125 0.253906 27.5 -1.359375 C 27.96875 -2.972656 28.175781 -4.554688 28.125 -6.109375 C 28.070312 -7.671875 27.710938 -9.085938 27.046875 -10.359375 C 26.390625 -11.628906 25.390625 -12.644531 24.046875 -13.40625 C 22.921875 -14.0625 21.625 -14.359375 20.15625 -14.296875 C 18.6875 -14.234375 17.222656 -13.738281 15.765625 -12.8125 C 14.316406 -11.894531 13 -10.46875 11.8125 -8.53125 C 10.9375 -7.125 10.269531 -5.628906 9.8125 -4.046875 C 9.351562 -2.472656 9.132812 -0.925781 9.15625 0.59375 C 9.1875 2.113281 9.492188 3.503906 10.078125 4.765625 C 10.671875 6.035156 11.597656 7.0625 12.859375 7.84375 Z M 12.859375 7.84375 "/></g></g></g><g fill="#1e1e1e" fill-opacity="1"><g transform="translate(305.769815, 76.589451)"><g><path d="M 23.734375 19.09375 C 23.835938 19.164062 23.851562 19.242188 23.78125 19.328125 C 23.707031 19.410156 23.617188 19.414062 23.515625 19.34375 C 22.523438 18.53125 21.851562 17.945312 21.5 17.59375 C 21.144531 17.25 20.785156 16.925781 20.421875 16.625 L 18.484375 15.046875 C 18.253906 14.523438 18.234375 13.710938 18.421875 12.609375 C 18.617188 11.515625 18.914062 10.265625 19.3125 8.859375 C 19.71875 7.453125 20.097656 6.054688 20.453125 4.671875 C 20.804688 3.265625 20.890625 2.039062 20.703125 1 C 20.515625 -0.03125 20.085938 -0.820312 19.421875 -1.375 C 18.929688 -1.769531 18.328125 -2.113281 17.609375 -2.40625 C 16.890625 -2.695312 16.1875 -2.898438 15.5 -3.015625 L 13.59375 -3.03125 L 10.015625 1.359375 C 9.234375 2.328125 8.660156 3.132812 8.296875 3.78125 C 7.929688 4.425781 7.84375 5.035156 8.03125 5.609375 C 8.21875 6.179688 8.753906 6.847656 9.640625 7.609375 C 9.765625 7.710938 9.789062 7.804688 9.71875 7.890625 C 9.644531 7.972656 9.546875 7.960938 9.421875 7.859375 C 8.804688 7.359375 8.332031 6.953125 8 6.640625 C 7.675781 6.328125 7.414062 6.082031 7.21875 5.90625 C 7.019531 5.726562 6.78125 5.523438 6.5 5.296875 L 3.9375 3.203125 C 3.695312 3.003906 3.457031 2.816406 3.21875 2.640625 C 2.976562 2.472656 2.675781 2.257812 2.3125 2 C 1.945312 1.75 1.441406 1.363281 0.796875 0.84375 C 0.691406 0.757812 0.675781 0.675781 0.75 0.59375 C 0.820312 0.507812 0.910156 0.507812 1.015625 0.59375 C 1.960938 1.320312 2.738281 1.722656 3.34375 1.796875 C 3.945312 1.867188 4.53125 1.660156 5.09375 1.171875 C 5.664062 0.691406 6.34375 -0.03125 7.125 -1 L 22.203125 -19.515625 C 23.015625 -20.503906 23.46875 -21.441406 23.5625 -22.328125 C 23.664062 -23.210938 23.109375 -24.09375 21.890625 -24.96875 C 21.816406 -25.03125 21.8125 -25.097656 21.875 -25.171875 C 21.9375 -25.242188 22.003906 -25.25 22.078125 -25.1875 C 22.691406 -24.945312 23.4375 -24.660156 24.3125 -24.328125 C 25.195312 -23.992188 26.085938 -23.6875 26.984375 -23.40625 C 27.890625 -23.125 28.660156 -22.910156 29.296875 -22.765625 C 29.390625 -22.773438 29.445312 -22.742188 29.46875 -22.671875 C 29.5 -22.609375 29.484375 -22.539062 29.421875 -22.46875 L 14.078125 -3.625 L 25.453125 -3.46875 C 27.816406 -3.4375 29.269531 -3.835938 29.8125 -4.671875 C 30.351562 -5.503906 29.773438 -6.609375 28.078125 -7.984375 C 27.960938 -8.078125 27.941406 -8.164062 28.015625 -8.25 C 28.085938 -8.34375 28.179688 -8.34375 28.296875 -8.25 C 29.617188 -7.175781 30.703125 -6.257812 31.546875 -5.5 C 32.398438 -4.75 33.085938 -4.164062 33.609375 -3.75 L 33.671875 -3.6875 C 34.097656 -3.34375 34.671875 -2.90625 35.390625 -2.375 C 36.117188 -1.851562 37.003906 -1.164062 38.046875 -0.3125 C 38.171875 -0.207031 38.195312 -0.109375 38.125 -0.015625 C 38.050781 0.0664062 37.953125 0.0546875 37.828125 -0.046875 C 36.484375 -1.140625 34.785156 -1.882812 32.734375 -2.28125 C 30.679688 -2.675781 28.492188 -2.878906 26.171875 -2.890625 L 18.3125 -2.96875 C 19.425781 -2.664062 20.390625 -2.179688 21.203125 -1.515625 C 22.109375 -0.785156 22.832031 0.210938 23.375 1.484375 C 23.925781 2.753906 24 4.253906 23.59375 5.984375 L 22.75 9.421875 C 22.300781 11.335938 22.015625 12.882812 21.890625 14.0625 C 21.765625 15.238281 21.84375 16.203125 22.125 16.953125 C 22.414062 17.703125 22.953125 18.414062 23.734375 19.09375 Z M 23.734375 19.09375 "/></g></g></g><g fill="#1e1e1e" fill-opacity="1"><g transform="translate(328.309158, 95.433918)"><g/></g></g><g clip-path="url(#97c07f5a1a)"><g transform="matrix(1, 0, 0, 1, 56, 76)"><g clip-path="url(#7933aeb9c3)"><g clip-path="url(#e5ae9b4b72)"><path fill="#1e1e1e" d="M 30.679688 5.285156 C 31.378906 30.898438 31.945312 31.46875 57.558594 32.164062 C 31.945312 32.867188 31.378906 33.433594 30.679688 59.046875 C 29.980469 33.433594 29.414062 32.867188 3.800781 32.164062 C 29.414062 31.46875 29.980469 30.898438 30.679688 5.285156 " fill-opacity="1" fill-rule="nonzero"/></g><g clip-path="url(#779098b226)"><path fill="#1e1e1e" d="M 54.816406 36.703125 C 55.019531 44.089844 55.183594 44.253906 62.570312 44.457031 C 55.183594 44.660156 55.019531 44.820312 54.816406 52.210938 C 54.617188 44.820312 54.453125 44.660156 47.066406 44.457031 C 54.453125 44.253906 54.617188 44.089844 54.816406 36.703125 " fill-opacity="1" fill-rule="nonzero"/></g><g clip-path="url(#c2c3519cbc)"><path fill="#1e1e1e" d="M 12.246094 24.359375 C 11.941406 13.136719 11.691406 12.890625 0.46875 12.582031 C 11.691406 12.277344 11.941406 12.027344 12.246094 0.804688 C 12.554688 12.027344 12.800781 12.277344 24.023438 12.582031 C 12.800781 12.890625 12.554688 13.136719 12.246094 24.359375 " fill-opacity="1" fill-rule="nonzero"/></g></g></g></g><g clip-path="url(#7b74c2e0b3)"><path fill="#1e1e1e" d="M 266.164062 81.285156 C 265.464844 106.898438 264.898438 107.46875 239.285156 108.164062 C 264.898438 108.867188 265.464844 109.433594 266.164062 135.046875 C 266.863281 109.433594 267.429688 108.867188 293.042969 108.164062 C 267.429688 107.46875 266.863281 106.898438 266.164062 81.285156 " fill-opacity="1" fill-rule="nonzero"/></g><g clip-path="url(#67fd8d8d04)"><path fill="#1e1e1e" d="M 242.027344 112.703125 C 241.824219 120.089844 241.660156 120.253906 234.273438 120.457031 C 241.660156 120.660156 241.824219 120.820312 242.027344 128.210938 C 242.226562 120.820312 242.390625 120.660156 249.777344 120.457031 C 242.390625 120.253906 242.226562 120.089844 242.027344 112.703125 " fill-opacity="1" fill-rule="nonzero"/></g><g clip-path="url(#d1997b58ed)"><path fill="#1e1e1e" d="M 284.597656 100.359375 C 284.902344 89.136719 285.152344 88.890625 296.375 88.582031 C 285.152344 88.277344 284.902344 88.027344 284.597656 76.804688 C 284.289062 88.027344 284.042969 88.277344 272.820312 88.582031 C 284.042969 88.890625 284.289062 89.136719 284.597656 100.359375 " fill-opacity="1" fill-rule="nonzero"/></g></g></g></svg>